<?xml version="1.0" encoding="UTF-8" standalone="no"?>
<!-- Created with Inkscape (http://www.inkscape.org/) -->

<svg
   width="1280"
   height="800"
   viewBox="0 0 1280 800"
   version="1.1"
   id="svg1"
   xml:space="preserve"
   inkscape:version="1.3.2 (091e20ef0f, 2023-11-25, custom)"
   sodipodi:docname="hmi-demo-light-brightness.svg"
   xmlns:inkscape="http://www.inkscape.org/namespaces/inkscape"
   xmlns:sodipodi="http://sodipodi.sourceforge.net/DTD/sodipodi-0.dtd"
   xmlns="http://www.w3.org/2000/svg"
   xmlns:svg="http://www.w3.org/2000/svg"><sodipodi:namedview
     id="namedview1"
     pagecolor="#ffffff"
     bordercolor="#666666"
     borderopacity="1.0"
     inkscape:showpageshadow="2"
     inkscape:pageopacity="0.0"
     inkscape:pagecheckerboard="0"
     inkscape:deskcolor="#d1d1d1"
     inkscape:document-units="px"
     inkscape:zoom="1.0229167"
     inkscape:cx="692.13847"
     inkscape:cy="364.15477"
     inkscape:window-width="2560"
     inkscape:window-height="1380"
     inkscape:window-x="1920"
     inkscape:window-y="0"
     inkscape:window-maximized="1"
     inkscape:current-layer="layer1"
     showgrid="false" /><defs
     id="defs1" /><g
     inkscape:label="Слой 1"
     inkscape:groupmode="layer"
     id="layer1"><rect
       style="fill:#1c1f24;stroke:none;stroke-width:3;stroke-linecap:square;stroke-linejoin:round;paint-order:markers fill stroke"
       id="rect1"
       width="1280"
       height="800"
       x="0"
       y="0" /><g
       id="g4"
       transform="translate(465.16794,67.44354)"><rect
         style="fill:#1c1f24;fill-opacity:1;stroke:#ffffff;stroke-width:3;stroke-linecap:square;stroke-linejoin:round;paint-order:markers fill stroke"
         id="rect3"
         width="239.85271"
         height="108.372"
         x="509.25974"
         y="593.10565"
         rx="7.999999"
         ry="7.9999995" /><path
         d="m 629.18609,614.72706 a 22.795218,22.795218 0 0 0 -22.79523,22.79521 c 0,7.75038 3.8752,14.55639 9.76939,18.69208 v 7.3596 a 3.2564596,3.2564596 0 0 0 3.25645,3.25646 h 19.53876 a 3.2564596,3.2564596 0 0 0 3.25647,-3.25646 v -7.3596 c 5.89418,-4.13569 9.76937,-10.9417 9.76937,-18.69208 a 22.795218,22.795218 0 0 0 -22.79521,-22.79521 m -9.76939,61.87273 a 3.2564596,3.2564596 0 0 0 3.25646,3.25646 H 635.699 a 3.2564596,3.2564596 0 0 0 3.25646,-3.25646 v -3.25645 H 619.4167 Z"
         id="path2"
         style="fill:#ffffff;stroke-width:1.00001" /></g><title
       id="title1-5">eye-outline</title><title
       id="title1-0">eye</title><title
       id="title1-7">gesture-tap-button</title><title
       id="title1-6">lightbulb</title><title
       id="title1">led-strip-variant</title><title
       id="title1-61">eye-closed</title><title
       id="title1-1">eye-outline</title><title
       id="title1-9">gesture-double-tap</title><title
       id="title1-53">led-strip-variant-off</title><title
       id="title1-535">led-strip</title><title
       id="title1-2">led-strip-variant</title><g
       id="g10"
       transform="translate(-3.0517578e-5)"><rect
         style="fill:#1c1f24;fill-opacity:1;stroke:#ffffff;stroke-width:3;stroke-linecap:square;stroke-linejoin:round;stroke-opacity:1;paint-order:markers fill stroke"
         id="rect9"
         width="864.6062"
         height="108.37203"
         x="65.719627"
         y="660.54913"
         rx="7.9999995"
         ry="8" /><text
         xml:space="preserve"
         style="font-size:71.6358px;line-height:1.25;font-family:Ubuntu;-inkscape-font-specification:Ubuntu;fill:#ffffff;fill-opacity:1;stroke-width:1"
         x="340.20309"
         y="733.4679"
         id="text10"><tspan
           sodipodi:role="line"
           id="tspan10"
           x="340.20309"
           y="733.4679"
           style="stroke-width:1">Закрыть</tspan></text></g><g
       id="g7"
       transform="matrix(1.9717319,0,0,1.9777366,-64.746889,-64.861301)"
       style="stroke-width:0.506398"><rect
         style="fill:#1c1f24;fill-opacity:1;stroke:#ffffff;stroke-width:1.51919;stroke-linecap:square;stroke-linejoin:round;stroke-opacity:1;paint-order:markers fill stroke"
         id="rect6"
         width="121.64802"
         height="121.48117"
         x="527.03528"
         y="216.30301"
         rx="4.0573463"
         ry="4.0450282" /><path
         style="fill:#ffffff;fill-opacity:1;stroke:#ffffff;stroke-width:1.51919;stroke-linecap:square;stroke-linejoin:round;stroke-opacity:1;paint-order:markers fill stroke"
         d="m 556.1164,277.04359 h 63.48578"
         id="path7" /></g><g
       id="g8"
       transform="matrix(1.9717319,0,0,1.9777366,-64.746889,-359.47471)"
       style="stroke-width:0.506398"><rect
         style="fill:#1c1f24;fill-opacity:1;stroke:#ffffff;stroke-width:1.51919;stroke-linecap:square;stroke-linejoin:round;stroke-opacity:1;paint-order:markers fill stroke"
         id="rect7"
         width="121.64802"
         height="121.48117"
         x="527.03528"
         y="216.30301"
         rx="4.0573463"
         ry="4.0450282" /><path
         style="fill:#ffffff;fill-opacity:1;stroke:#ffffff;stroke-width:1.51919;stroke-linecap:square;stroke-linejoin:round;stroke-opacity:1;paint-order:markers fill stroke"
         d="m 556.1164,277.04359 h 63.48578"
         id="path8" /><path
         style="fill:#ffffff;fill-opacity:1;stroke:#ffffff;stroke-width:1.51919;stroke-linecap:square;stroke-linejoin:round;stroke-opacity:1;paint-order:markers fill stroke"
         d="M 587.85929,308.78648 V 245.3007"
         id="path9" /></g><g
       id="g11"
       transform="translate(31.388402)"><rect
         style="fill:#ffcc00;stroke:#1c1f24;stroke-width:3.00001;stroke-linecap:square;stroke-linejoin:round;stroke-opacity:0.6;paint-order:markers fill stroke"
         id="rect5"
         width="864.60614"
         height="412.71759"
         x="34.331226"
         y="67.338074"
         rx="8"
         ry="8" /><text
         xml:space="preserve"
         style="font-size:117.371px;line-height:1.25;font-family:Ubuntu;-inkscape-font-specification:Ubuntu;stroke-width:1"
         x="464.11081"
         y="314.42462"
         id="text11"><tspan
           sodipodi:role="line"
           id="tspan11"
           x="464.11081"
           y="314.42462"
           style="text-align:center;text-anchor:middle;stroke-width:1">100 %</tspan></text></g><g
       id="g3"
       transform="translate(181.21333,-98.288541)"><rect
         style="fill:#1c1f24;fill-opacity:1;stroke:#ffffff;stroke-width:3;stroke-linecap:square;stroke-linejoin:round;paint-order:markers fill stroke"
         id="rect2"
         width="239.85271"
         height="108.372"
         x="509.25974"
         y="593.10565"
         rx="7.999999"
         ry="7.9999995" /><path
         style="font-size:71.6358px;line-height:1.25;font-family:Ubuntu;-inkscape-font-specification:Ubuntu;text-align:center;text-anchor:middle;fill:#ffffff"
         d="m 534.69854,632.7496 q 4.08324,-1.57599 7.95158,-4.0116 3.86833,-2.50726 7.09194,-6.23232 h 4.72797 v 49.64361 H 547.8079 V 631.7467 q -0.85963,0.78799 -2.14908,1.64762 -1.21781,0.85963 -2.72216,1.64763 -1.43271,0.78799 -3.08034,1.50435 -1.57599,0.71636 -3.08034,1.21781 z m 37.3222,14.54207 q 0,-12.46463 4.36978,-19.1984 4.44142,-6.73376 12.24973,-6.73376 7.8083,0 12.17808,6.73376 4.44142,6.73377 4.44142,19.1984 0,12.46463 -4.44142,19.19839 -4.36978,6.73377 -12.17808,6.73377 -7.80831,0 -12.24973,-6.73377 -4.36978,-6.73376 -4.36978,-19.19839 z m 26.2187,0 q 0,-4.08324 -0.50145,-7.73667 -0.42981,-3.65342 -1.57599,-6.37558 -1.07453,-2.72217 -2.93706,-4.29815 -1.86253,-1.64763 -4.58469,-1.64763 -2.72217,0 -4.5847,1.64763 -1.86253,1.57598 -3.0087,4.29815 -1.07454,2.72216 -1.57599,6.37558 -0.42981,3.65343 -0.42981,7.73667 0,4.08324 0.42981,7.73667 0.50145,3.65342 1.57599,6.37558 1.14617,2.72216 3.0087,4.36979 1.86253,1.57598 4.5847,1.57598 2.72216,0 4.58469,-1.57598 1.86253,-1.64763 2.93706,-4.36979 1.14618,-2.72216 1.57599,-6.37558 0.50145,-3.65343 0.50145,-7.73667 z m 14.18383,0 q 0,-12.46463 4.36979,-19.1984 4.44142,-6.73376 12.24972,-6.73376 7.8083,0 12.17809,6.73376 4.44142,6.73377 4.44142,19.1984 0,12.46463 -4.44142,19.19839 -4.36979,6.73377 -12.17809,6.73377 -7.8083,0 -12.24972,-6.73377 -4.36979,-6.73376 -4.36979,-19.19839 z m 26.21871,0 q 0,-4.08324 -0.50145,-7.73667 -0.42982,-3.65342 -1.57599,-6.37558 -1.07454,-2.72217 -2.93707,-4.29815 -1.86253,-1.64763 -4.58469,-1.64763 -2.72216,0 -4.58469,1.64763 -1.86253,1.57598 -3.00871,4.29815 -1.07453,2.72216 -1.57598,6.37558 -0.42982,3.65343 -0.42982,7.73667 0,4.08324 0.42982,7.73667 0.50145,3.65342 1.57598,6.37558 1.14618,2.72216 3.00871,4.36979 1.86253,1.57598 4.58469,1.57598 2.72216,0 4.58469,-1.57598 1.86253,-1.64763 2.93707,-4.36979 1.14617,-2.72216 1.57599,-6.37558 0.50145,-3.65343 0.50145,-7.73667 z m 30.73176,-12.67954 q 0,-3.22361 0.85963,-5.65923 0.85963,-2.43561 2.36398,-4.08324 1.57599,-1.71926 3.65343,-2.57889 2.07744,-0.85963 4.51306,-0.85963 2.43561,0 4.51305,0.85963 2.07744,0.85963 3.58179,2.57889 1.57599,1.64763 2.43562,4.08324 0.85963,2.43562 0.85963,5.65923 0,3.22361 -0.85963,5.65923 -0.85963,2.43562 -2.43562,4.15488 -1.50435,1.64762 -3.58179,2.50725 -2.07744,0.85963 -4.51305,0.85963 -2.43562,0 -4.51306,-0.85963 -2.07744,-0.85963 -3.65343,-2.50725 -1.50435,-1.71926 -2.36398,-4.15488 -0.85963,-2.43562 -0.85963,-5.65923 z m 17.1926,0 q 0,-3.86833 -1.50436,-6.01741 -1.50435,-2.22071 -4.29814,-2.22071 -2.7938,0 -4.29815,2.22071 -1.50435,2.14908 -1.50435,6.01741 0,3.86833 1.50435,6.08904 1.50435,2.14908 4.29815,2.14908 2.79379,0 4.29814,-2.14908 1.50436,-2.22071 1.50436,-6.08904 z m 14.32716,25.43071 q 0,-3.22361 0.85963,-5.65923 0.85963,-2.43561 2.36398,-4.08324 1.57599,-1.71926 3.65342,-2.57889 2.07744,-0.85963 4.51306,-0.85963 2.43562,0 4.51305,0.85963 2.07744,0.85963 3.5818,2.57889 1.57598,1.64763 2.43561,4.08324 0.85963,2.43562 0.85963,5.65923 0,3.22361 -0.85963,5.65923 -0.85963,2.43562 -2.43561,4.15488 -1.50436,1.64762 -3.5818,2.50725 -2.07743,0.85963 -4.51305,0.85963 -2.43562,0 -4.51306,-0.85963 -2.07743,-0.85963 -3.65342,-2.50725 -1.50435,-1.71926 -2.36398,-4.15488 -0.85963,-2.43562 -0.85963,-5.65923 z m 17.19259,0 q 0,-3.86833 -1.50435,-6.01741 -1.50435,-2.22071 -4.29815,-2.22071 -2.7938,0 -4.29815,2.22071 -1.50435,2.14908 -1.50435,6.01741 0,3.86833 1.50435,6.08904 1.50435,2.14908 4.29815,2.14908 2.7938,0 4.29815,-2.14908 1.50435,-2.22071 1.50435,-6.08904 z m -4.29815,-37.53716 -28.0096,49.64361 h -6.51886 l 28.0096,-49.64361 z"
         id="text11-5"
         aria-label="100 %" /></g><g
       id="g5"
       transform="translate(-131.16339,-98.288541)"><rect
         style="fill:#1c1f24;fill-opacity:1;stroke:#ffffff;stroke-width:3;stroke-linecap:square;stroke-linejoin:round;paint-order:markers fill stroke"
         id="rect4"
         width="239.85271"
         height="108.372"
         x="509.25974"
         y="593.10565"
         rx="7.999999"
         ry="7.9999995" /><path
         style="font-size:71.6358px;line-height:1.25;font-family:Ubuntu;-inkscape-font-specification:Ubuntu;text-align:center;text-anchor:middle;fill:#ffffff"
         d="m 563.49607,641.63244 q 10.81701,0.42981 15.83152,4.72796 5.08614,4.29815 5.08614,11.67664 0,3.29525 -1.14617,6.08904 -1.07454,2.7938 -3.36689,4.7996 -2.22071,2.0058 -5.65922,3.15198 -3.43852,1.14617 -8.16649,1.14617 -1.86253,0 -3.79669,-0.28654 -1.93417,-0.28655 -3.58179,-0.71636 -1.64763,-0.42982 -2.93707,-0.85963 -1.28945,-0.42982 -1.86253,-0.71636 l 1.28944,-5.8025 q 1.21781,0.57309 3.93997,1.50435 2.7938,0.93127 6.8054,0.93127 3.22361,0 5.37269,-0.71636 2.22071,-0.71636 3.58179,-1.93417 1.36108,-1.21781 1.93416,-2.79379 0.64473,-1.64763 0.64473,-3.43852 0,-2.72216 -0.93127,-4.7996 -0.93126,-2.14908 -3.29525,-3.58179 -2.36398,-1.43272 -6.30395,-2.14908 -3.93997,-0.78799 -9.95737,-0.78799 0.42981,-3.51015 0.64472,-6.59049 0.28654,-3.08034 0.50145,-6.01741 0.21491,-2.93707 0.35818,-5.8025 0.14327,-2.93707 0.28654,-6.16068 h 23.92636 v 5.65923 h -18.12386 q -0.0716,1.07454 -0.21491,2.93707 -0.14327,1.79089 -0.28654,3.79669 -0.14327,1.93417 -0.28654,3.7967 -0.14327,1.86253 -0.28655,2.93707 z m 29.7288,5.65923 q 0,-12.46463 4.36979,-19.1984 4.44142,-6.73376 12.24972,-6.73376 7.8083,0 12.17809,6.73376 4.44142,6.73377 4.44142,19.1984 0,12.46463 -4.44142,19.19839 -4.36979,6.73377 -12.17809,6.73377 -7.8083,0 -12.24972,-6.73377 -4.36979,-6.73376 -4.36979,-19.19839 z m 26.21871,0 q 0,-4.08324 -0.50145,-7.73667 -0.42982,-3.65342 -1.57599,-6.37558 -1.07454,-2.72217 -2.93707,-4.29815 -1.86253,-1.64763 -4.58469,-1.64763 -2.72216,0 -4.58469,1.64763 -1.86253,1.57598 -3.0087,4.29815 -1.07454,2.72216 -1.57599,6.37558 -0.42982,3.65343 -0.42982,7.73667 0,4.08324 0.42982,7.73667 0.50145,3.65342 1.57599,6.37558 1.14617,2.72216 3.0087,4.36979 1.86253,1.57598 4.58469,1.57598 2.72216,0 4.58469,-1.57598 1.86253,-1.64763 2.93707,-4.36979 1.14617,-2.72216 1.57599,-6.37558 0.50145,-3.65343 0.50145,-7.73667 z m 30.73176,-12.67954 q 0,-3.22361 0.85963,-5.65923 0.85963,-2.43561 2.36399,-4.08324 1.57598,-1.71926 3.65342,-2.57889 2.07744,-0.85963 4.51306,-0.85963 2.43561,0 4.51305,0.85963 2.07744,0.85963 3.58179,2.57889 1.57599,1.64763 2.43562,4.08324 0.85963,2.43562 0.85963,5.65923 0,3.22361 -0.85963,5.65923 -0.85963,2.43562 -2.43562,4.15488 -1.50435,1.64762 -3.58179,2.50725 -2.07744,0.85963 -4.51305,0.85963 -2.43562,0 -4.51306,-0.85963 -2.07744,-0.85963 -3.65342,-2.50725 -1.50436,-1.71926 -2.36399,-4.15488 -0.85963,-2.43562 -0.85963,-5.65923 z m 17.1926,0 q 0,-3.86833 -1.50435,-6.01741 -1.50436,-2.22071 -4.29815,-2.22071 -2.7938,0 -4.29815,2.22071 -1.50435,2.14908 -1.50435,6.01741 0,3.86833 1.50435,6.08904 1.50435,2.14908 4.29815,2.14908 2.79379,0 4.29815,-2.14908 1.50435,-2.22071 1.50435,-6.08904 z m 14.32716,25.43071 q 0,-3.22361 0.85963,-5.65923 0.85963,-2.43561 2.36398,-4.08324 1.57599,-1.71926 3.65342,-2.57889 2.07744,-0.85963 4.51306,-0.85963 2.43562,0 4.51306,0.85963 2.07743,0.85963 3.58179,2.57889 1.57598,1.64763 2.43561,4.08324 0.85963,2.43562 0.85963,5.65923 0,3.22361 -0.85963,5.65923 -0.85963,2.43562 -2.43561,4.15488 -1.50436,1.64762 -3.58179,2.50725 -2.07744,0.85963 -4.51306,0.85963 -2.43562,0 -4.51306,-0.85963 -2.07743,-0.85963 -3.65342,-2.50725 -1.50435,-1.71926 -2.36398,-4.15488 -0.85963,-2.43562 -0.85963,-5.65923 z m 17.19259,0 q 0,-3.86833 -1.50435,-6.01741 -1.50435,-2.22071 -4.29815,-2.22071 -2.7938,0 -4.29815,2.22071 -1.50435,2.14908 -1.50435,6.01741 0,3.86833 1.50435,6.08904 1.50435,2.14908 4.29815,2.14908 2.7938,0 4.29815,-2.14908 1.50435,-2.22071 1.50435,-6.08904 z m -4.29815,-37.53716 -28.0096,49.64361 h -6.51885 l 28.00959,-49.64361 z"
         id="text4"
         aria-label="50 %" /></g><g
       id="g9"
       transform="translate(-443.54011,-98.288541)"><rect
         style="fill:#1c1f24;fill-opacity:1;stroke:#ffffff;stroke-width:3;stroke-linecap:square;stroke-linejoin:round;paint-order:markers fill stroke"
         id="rect8"
         width="239.85271"
         height="108.372"
         x="509.25974"
         y="593.10565"
         rx="7.999999"
         ry="7.9999995" /><path
         style="font-size:71.6358px;line-height:1.25;font-family:Ubuntu;-inkscape-font-specification:Ubuntu;text-align:center;text-anchor:middle;fill:#ffffff"
         d="m 573.5609,647.29167 q 0,-12.46463 4.36978,-19.1984 4.44142,-6.73376 12.24973,-6.73376 7.8083,0 12.17808,6.73376 4.44142,6.73377 4.44142,19.1984 0,12.46463 -4.44142,19.19839 -4.36978,6.73377 -12.17808,6.73377 -7.80831,0 -12.24973,-6.73377 -4.36978,-6.73376 -4.36978,-19.19839 z m 26.2187,0 q 0,-4.08324 -0.50145,-7.73667 -0.42981,-3.65342 -1.57598,-6.37558 -1.07454,-2.72217 -2.93707,-4.29815 -1.86253,-1.64763 -4.58469,-1.64763 -2.72216,0 -4.5847,1.64763 -1.86253,1.57598 -3.0087,4.29815 -1.07454,2.72216 -1.57599,6.37558 -0.42981,3.65343 -0.42981,7.73667 0,4.08324 0.42981,7.73667 0.50145,3.65342 1.57599,6.37558 1.14617,2.72216 3.0087,4.36979 1.86254,1.57598 4.5847,1.57598 2.72216,0 4.58469,-1.57598 1.86253,-1.64763 2.93707,-4.36979 1.14617,-2.72216 1.57598,-6.37558 0.50145,-3.65343 0.50145,-7.73667 z m 30.73177,-12.67954 q 0,-3.22361 0.85963,-5.65923 0.85963,-2.43561 2.36398,-4.08324 1.57599,-1.71926 3.65343,-2.57889 2.07743,-0.85963 4.51305,-0.85963 2.43562,0 4.51306,0.85963 2.07744,0.85963 3.58179,2.57889 1.57599,1.64763 2.43562,4.08324 0.85962,2.43562 0.85962,5.65923 0,3.22361 -0.85962,5.65923 -0.85963,2.43562 -2.43562,4.15488 -1.50435,1.64762 -3.58179,2.50725 -2.07744,0.85963 -4.51306,0.85963 -2.43562,0 -4.51305,-0.85963 -2.07744,-0.85963 -3.65343,-2.50725 -1.50435,-1.71926 -2.36398,-4.15488 -0.85963,-2.43562 -0.85963,-5.65923 z m 17.19259,0 q 0,-3.86833 -1.50435,-6.01741 -1.50435,-2.22071 -4.29815,-2.22071 -2.79379,0 -4.29815,2.22071 -1.50435,2.14908 -1.50435,6.01741 0,3.86833 1.50435,6.08904 1.50436,2.14908 4.29815,2.14908 2.7938,0 4.29815,-2.14908 1.50435,-2.22071 1.50435,-6.08904 z m 14.32716,25.43071 q 0,-3.22361 0.85963,-5.65923 0.85963,-2.43561 2.36398,-4.08324 1.57599,-1.71926 3.65343,-2.57889 2.07744,-0.85963 4.51306,-0.85963 2.43561,0 4.51305,0.85963 2.07744,0.85963 3.58179,2.57889 1.57599,1.64763 2.43562,4.08324 0.85963,2.43562 0.85963,5.65923 0,3.22361 -0.85963,5.65923 -0.85963,2.43562 -2.43562,4.15488 -1.50435,1.64762 -3.58179,2.50725 -2.07744,0.85963 -4.51305,0.85963 -2.43562,0 -4.51306,-0.85963 -2.07744,-0.85963 -3.65343,-2.50725 -1.50435,-1.71926 -2.36398,-4.15488 -0.85963,-2.43562 -0.85963,-5.65923 z m 17.1926,0 q 0,-3.86833 -1.50436,-6.01741 -1.50435,-2.22071 -4.29814,-2.22071 -2.7938,0 -4.29815,2.22071 -1.50435,2.14908 -1.50435,6.01741 0,3.86833 1.50435,6.08904 1.50435,2.14908 4.29815,2.14908 2.79379,0 4.29814,-2.14908 1.50436,-2.22071 1.50436,-6.08904 z m -4.29815,-37.53716 -28.0096,49.64361 h -6.51886 l 28.0096,-49.64361 z"
         id="text8"
         aria-label="0 %" /></g></g></svg>
