<?xml version="1.0" encoding="UTF-8" standalone="no"?>
<!-- Created with Inkscape (http://www.inkscape.org/) -->

<svg
   width="1280"
   height="800"
   viewBox="0 0 1280 800"
   version="1.1"
   id="svg1"
   xml:space="preserve"
   inkscape:version="1.3.2 (091e20ef0f, 2023-11-25, custom)"
   sodipodi:docname="hmi-demo.svg"
   xmlns:inkscape="http://www.inkscape.org/namespaces/inkscape"
   xmlns:sodipodi="http://sodipodi.sourceforge.net/DTD/sodipodi-0.dtd"
   xmlns="http://www.w3.org/2000/svg"
   xmlns:svg="http://www.w3.org/2000/svg"><sodipodi:namedview
     id="namedview1"
     pagecolor="#ffffff"
     bordercolor="#666666"
     borderopacity="1.0"
     inkscape:showpageshadow="2"
     inkscape:pageopacity="0.0"
     inkscape:pagecheckerboard="0"
     inkscape:deskcolor="#d1d1d1"
     inkscape:document-units="px"
     inkscape:zoom="1.0229167"
     inkscape:cx="657.92259"
     inkscape:cy="452.13848"
     inkscape:window-width="2560"
     inkscape:window-height="1380"
     inkscape:window-x="1920"
     inkscape:window-y="0"
     inkscape:window-maximized="1"
     inkscape:current-layer="layer1"
     showgrid="false" /><defs
     id="defs1" /><g
     inkscape:label="Слой 1"
     inkscape:groupmode="layer"
     id="layer1"><rect
       style="fill:#1c1f24;stroke:none;stroke-width:3;stroke-linecap:square;stroke-linejoin:round;paint-order:markers fill stroke"
       id="rect1"
       width="1280"
       height="800"
       x="0"
       y="0" /><title
       id="title1-79">cog</title><title
       id="title1-5">eye-outline</title><title
       id="title1-0">eye</title><title
       id="title1-7">gesture-tap-button</title><title
       id="title1-6">lightbulb</title><g
       id="g5"
       inkscape:label="btnLight1"><rect
         style="fill:#1c1f24;stroke:#ffffff;stroke-width:3;stroke-linecap:square;stroke-linejoin:round;paint-order:markers fill stroke;fill-opacity:1"
         id="rect2"
         width="331.33578"
         height="331.41589"
         x="35.831329"
         y="431.05646"
         rx="7.9999995"
         ry="8" /><title
         id="title1-09">gesture-tap</title><path
         d="m 201.49923,497.90296 a 69.203005,69.203005 0 0 0 -69.20301,69.20301 c 0,23.52902 11.76452,44.19107 29.65843,56.74646 v 22.34268 a 9.8861433,9.8861433 0 0 0 9.88615,9.88615 h 59.31685 a 9.8861433,9.8861433 0 0 0 9.88614,-9.88615 v -22.34268 c 17.89393,-12.55539 29.65843,-33.21744 29.65843,-56.74646 A 69.203005,69.203005 0 0 0 201.49923,497.90296 M 171.8408,685.7397 a 9.8861433,9.8861433 0 0 0 9.88615,9.88615 h 39.54455 a 9.8861433,9.8861433 0 0 0 9.88615,-9.88615 v -9.88615 H 171.8408 Z"
         id="path1-2"
         style="fill:#ffffff;stroke-width:1.00001" /><g
         id="g13"
         transform="matrix(0.59732018,0,0,0.59732018,-62.772481,179.96982)"
         style="stroke-width:1.67414"><path
           d="m 234.26874,477.30775 -10.59396,10.59396 -15.89089,-15.89094 10.59392,-10.59395 15.89093,15.89093 m 45.40261,-34.80867 h -15.13421 v 22.70131 h 15.13421 v -22.70131 m -90.80522,90.80521 h 22.70131 v -15.1342 h -22.70131 v 15.1342 m 68.10392,68.10391 c 0,4.54028 3.02683,7.56711 7.56709,7.56711 h 15.13421 c 4.54025,0 7.56709,-3.02683 7.56709,-7.56711 v -7.5671 h -30.26839 v 7.5671 m 68.86062,-139.99138 -15.89093,15.89093 10.59395,10.59396 15.89089,-15.89094 -10.59391,-10.59395 m -8.32382,64.32038 c 0,16.64763 -9.08051,31.78183 -22.70131,39.34891 v 13.62079 c 0,4.54027 -3.02683,7.56711 -7.5671,7.56711 h -30.26839 c -4.54027,0 -7.56712,-3.02684 -7.56712,-7.56711 v -13.62079 c -13.62078,-7.56708 -22.7013,-22.70128 -22.7013,-39.34891 0,-24.97145 20.43117,-45.4026 45.40261,-45.4026 24.97145,0 45.40261,20.43115 45.40261,45.4026 m -74.61162,-7.56711 h 58.41803 c -3.4052,-13.01542 -15.13421,-22.7013 -29.20902,-22.7013 -14.07481,0 -25.80381,9.68588 -29.20901,22.7013 m 89.74581,0 v 15.1342 h 22.70132 v -15.1342 z"
           id="path1-22"
           style="fill:#ffffff;fill-opacity:1;stroke-width:1.67414" /><text
           xml:space="preserve"
           style="font-size:26.8892px;line-height:1.25;font-family:Ubuntu;-inkscape-font-specification:Ubuntu;fill:#1c1f24;fill-opacity:1;stroke-width:1.67414"
           x="234.94337"
           y="542.43555"
           id="text1"><tspan
             sodipodi:role="line"
             id="tspan1"
             x="234.94337"
             y="542.43555"
             style="fill:#1c1f24;fill-opacity:1;stroke-width:1.67414">долго</tspan></text></g></g><title
       id="title1-59">lightbulb-on-70</title><title
       id="title1">led-strip-variant</title><rect
       style="fill:#ffffff;stroke:#1c1f24;stroke-width:3.00001;stroke-linecap:square;stroke-linejoin:round;paint-order:markers fill stroke;stroke-opacity:0.60000002"
       id="rect5"
       width="438.50085"
       height="270.44611"
       x="34.331223"
       y="67.338074"
       rx="8"
       ry="8" /><title
       id="title1-61">eye-closed</title><path
       d="m 253.58164,188.19254 a 14.368591,14.368591 0 0 1 14.36859,14.36859 14.368591,14.368591 0 0 1 -14.36859,14.36859 14.368591,14.368591 0 0 1 -14.36859,-14.36859 14.368591,14.368591 0 0 1 14.36859,-14.36859 m 0,-21.55289 c 23.94765,0 44.39895,14.89544 52.68484,35.92148 -8.28589,21.02604 -28.73719,35.92148 -52.68484,35.92148 -23.94765,0 -44.39895,-14.89544 -52.68483,-35.92148 8.28588,-21.02604 28.73718,-35.92148 52.68483,-35.92148 m -42.24366,35.92148 c 7.90273,16.09282 24.23503,26.34242 42.24366,26.34242 18.00864,0 34.34093,-10.2496 42.24366,-26.34242 -7.90273,-16.09282 -24.23502,-26.34242 -42.24366,-26.34242 -18.00863,0 -34.34093,10.2496 -42.24366,26.34242 z"
       id="path1"
       style="stroke-width:1;fill:#1c1f24;fill-opacity:0.40000001" /><path
       d="m 253.48597,228.90363 c -18.20027,0 -34.48472,-10.05805 -42.14799,-26.3425 h -10.53701 c 8.14223,21.07399 28.73728,35.92159 52.685,35.92159 23.94773,0 44.54277,-14.8476 52.685,-35.92159 h -10.537 c -7.66327,16.28445 -23.94772,26.3425 -42.148,26.3425 z"
       id="path1-8"
       style="stroke-width:0.999999;fill:#1c1f24;fill-opacity:0.40000001" /><title
       id="title1-1">eye-outline</title><g
       id="g4"><rect
         style="fill:#1c1f24;stroke:#ffffff;stroke-width:3;stroke-linecap:square;stroke-linejoin:round;paint-order:markers fill stroke;fill-opacity:1"
         id="rect3"
         width="331.33578"
         height="331.41589"
         x="474.33206"
         y="431.05646"
         rx="7.9999995"
         ry="8" /><path
         d="m 639.99996,497.90279 a 69.203125,69.203125 0 0 0 -69.20313,69.20313 c 0,23.52906 11.76453,44.19114 29.65849,56.74656 v 22.34272 a 9.8861607,9.8861607 0 0 0 9.88616,9.88616 h 59.31696 a 9.8861607,9.8861607 0 0 0 9.88616,-9.88616 v -22.34272 c 17.89395,-12.55542 29.65848,-33.2175 29.65848,-56.74656 a 69.203125,69.203125 0 0 0 -69.20312,-69.20313 m -29.65848,187.83706 a 9.8861607,9.8861607 0 0 0 9.88616,9.88616 h 39.54464 a 9.8861607,9.8861607 0 0 0 9.88616,-9.88616 v -9.88616 h -59.31696 z"
         id="path2"
         style="fill:#ffffff;stroke-width:1.00001" /></g><g
       id="g3"><rect
         style="fill:#1c1f24;stroke:#ffffff;stroke-width:3;stroke-linecap:square;stroke-linejoin:round;paint-order:markers fill stroke;fill-opacity:1"
         id="rect4"
         width="331.33578"
         height="331.41589"
         x="912.83282"
         y="431.05646"
         rx="7.9999995"
         ry="8" /><path
         d="m 1078.5007,497.90279 a 69.203125,69.203125 0 0 0 -69.2031,69.20313 c 0,23.52906 11.7645,44.19114 29.6585,56.74656 v 22.34272 a 9.8861607,9.8861607 0 0 0 9.8861,9.88616 h 59.317 a 9.8861607,9.8861607 0 0 0 9.8862,-9.88616 v -22.34272 c 17.8939,-12.55542 29.6584,-33.2175 29.6584,-56.74656 a 69.203125,69.203125 0 0 0 -69.2031,-69.20313 m -29.6585,187.83706 a 9.8861607,9.8861607 0 0 0 9.8862,9.88616 h 39.5446 a 9.8861607,9.8861607 0 0 0 9.8862,-9.88616 v -9.88616 h -59.317 z"
         id="path3"
         style="fill:#ffffff;stroke-width:1.00001" /></g><title
       id="title1-9">gesture-double-tap</title><title
       id="title1-53">led-strip-variant-off</title><g
       id="g1"
       transform="translate(55.990196)"><rect
         style="fill:#ff8080;stroke:#1a1a18;stroke-width:3;stroke-linecap:square;stroke-linejoin:round;paint-order:markers fill stroke"
         id="rect6"
         width="121.64802"
         height="121.48117"
         x="474.33206"
         y="68.838074"
         rx="7.9999995"
         ry="8" /><path
         d="m 529.78557,118.83761 a 2.6852614,2.6852614 0 0 1 2.68526,-2.68526 2.6852614,2.6852614 0 0 1 2.68526,2.68526 v 12.00312 l 3.24917,0.34908 13.26519,5.88072 c 1.42319,0.64447 2.28247,2.06765 2.28247,3.62511 v 11.70774 c -0.0806,2.20191 -1.82598,3.94733 -4.02789,4.02789 h -17.4542 c -1.0204,0 -1.98709,-0.40279 -2.68526,-1.15466 l -13.15778,-11.2781 1.98709,-2.06765 c 0.5102,-0.56391 1.23522,-0.85929 1.9871,-0.85929 h 0.59075 l 8.59284,4.61865 v -26.85261 m 2.68526,-10.74105 a 10.741046,10.741046 0 0 1 10.74105,10.74105 c 0,4.02789 -2.14821,7.43817 -5.37053,9.291 v -3.27602 c 1.63801,-1.47689 2.68527,-3.6251 2.68527,-6.01498 a 8.0557842,8.0557842 0 0 0 -8.05579,-8.05579 8.0557842,8.0557842 0 0 0 -8.05578,8.05579 c 0,2.38988 1.04725,4.53809 2.68526,6.01498 v 3.27602 c -3.22232,-1.85283 -5.37052,-5.26311 -5.37052,-9.291 a 10.741046,10.741046 0 0 1 10.74104,-10.74105 m 0,-5.37052 a 16.111568,16.111568 0 0 1 16.11157,16.11157 c 0,4.56494 -1.90654,8.67339 -4.94088,11.62718 l -2.68526,-1.20837 c 3.00749,-2.47044 4.94088,-6.2298 4.94088,-10.41881 a 13.426307,13.426307 0 0 0 -13.42631,-13.42631 13.426307,13.426307 0 0 0 -13.42631,13.42631 c 0,5.50478 3.30288,10.23084 8.05579,12.2985 v 2.90008 c -6.25666,-2.22877 -10.74105,-8.19005 -10.74105,-15.19858 a 16.111568,16.111568 0 0 1 16.11157,-16.11157 z"
         id="path1-1"
         style="fill:#ff4c4c;fill-opacity:1;stroke-width:0.999999" /><title
         id="title1-5356">gesture-tap</title></g><g
       id="g2"
       transform="translate(55.990196)"><rect
         style="fill:#ffb380;stroke:#1a1a18;stroke-width:3;stroke-linecap:square;stroke-linejoin:round;paint-order:markers fill stroke"
         id="rect7"
         width="121.64802"
         height="121.48117"
         x="622.38159"
         y="68.838074"
         rx="7.9999995"
         ry="8" /><path
         d="m 677.83511,118.83761 a 2.6852614,2.6852614 0 0 1 2.68526,-2.68526 2.6852614,2.6852614 0 0 1 2.68526,2.68526 v 12.00312 l 3.24917,0.34908 13.26519,5.88072 c 1.42319,0.64447 2.28247,2.06765 2.28247,3.62511 v 11.70774 c -0.0806,2.20191 -1.82598,3.94733 -4.02789,4.02789 h -17.4542 c -1.0204,0 -1.98709,-0.40279 -2.68526,-1.15466 l -13.15778,-11.2781 1.98709,-2.06765 c 0.5102,-0.56391 1.23522,-0.85929 1.9871,-0.85929 h 0.59075 l 8.59284,4.61865 v -26.85261 m 2.68526,-10.74105 a 10.741046,10.741046 0 0 1 10.74105,10.74105 c 0,4.02789 -2.14821,7.43817 -5.37053,9.291 v -3.27602 c 1.63801,-1.47689 2.68527,-3.6251 2.68527,-6.01498 a 8.0557842,8.0557842 0 0 0 -8.05579,-8.05579 8.0557842,8.0557842 0 0 0 -8.05578,8.05579 c 0,2.38988 1.04725,4.53809 2.68526,6.01498 v 3.27602 c -3.22232,-1.85283 -5.37052,-5.26311 -5.37052,-9.291 a 10.741046,10.741046 0 0 1 10.74104,-10.74105 m 0,-5.37052 a 16.111568,16.111568 0 0 1 16.11157,16.11157 c 0,4.56494 -1.90654,8.67339 -4.94088,11.62718 l -2.68526,-1.20837 c 3.00749,-2.47044 4.94088,-6.2298 4.94088,-10.41881 a 13.426307,13.426307 0 0 0 -13.42631,-13.42631 13.426307,13.426307 0 0 0 -13.42631,13.42631 c 0,5.50478 3.30288,10.23084 8.05579,12.2985 v 2.90008 c -6.25666,-2.22877 -10.74105,-8.19005 -10.74105,-15.19858 a 16.111568,16.111568 0 0 1 16.11157,-16.11157 z"
         id="path4"
         style="fill:#ff944c;fill-opacity:1;stroke-width:0.999999" /></g><g
       id="g6"
       transform="translate(55.990196)"><rect
         style="fill:#ffe680;stroke:#1a1a18;stroke-width:3;stroke-linecap:square;stroke-linejoin:round;paint-order:markers fill stroke"
         id="rect8"
         width="121.64802"
         height="121.48117"
         x="770.43115"
         y="68.838074"
         rx="7.9999995"
         ry="8" /><path
         d="m 825.88467,118.83761 a 2.6852614,2.6852614 0 0 1 2.6853,-2.68526 2.6852614,2.6852614 0 0 1 2.6852,2.68526 v 12.00312 l 3.2492,0.34908 13.2652,5.88072 c 1.4232,0.64447 2.2824,2.06765 2.2824,3.62511 v 11.70774 c -0.081,2.20191 -1.8259,3.94733 -4.0278,4.02789 h -17.4542 c -1.0204,0 -1.9871,-0.40279 -2.6853,-1.15466 l -13.1578,-11.2781 1.9871,-2.06765 c 0.5102,-0.56391 1.2352,-0.85929 1.9871,-0.85929 h 0.5908 l 8.5928,4.61865 v -26.85261 m 2.6853,-10.74105 a 10.741046,10.741046 0 0 1 10.741,10.74105 c 0,4.02789 -2.1482,7.43817 -5.3705,9.291 v -3.27602 c 1.638,-1.47689 2.6852,-3.6251 2.6852,-6.01498 a 8.0557842,8.0557842 0 0 0 -8.0557,-8.05579 8.0557842,8.0557842 0 0 0 -8.0558,8.05579 c 0,2.38988 1.0472,4.53809 2.6852,6.01498 v 3.27602 c -3.2223,-1.85283 -5.3705,-5.26311 -5.3705,-9.291 a 10.741046,10.741046 0 0 1 10.7411,-10.74105 m 0,-5.37052 a 16.111568,16.111568 0 0 1 16.1115,16.11157 c 0,4.56494 -1.9065,8.67339 -4.9409,11.62718 l -2.6852,-1.20837 c 3.0075,-2.47044 4.9409,-6.2298 4.9409,-10.41881 a 13.426307,13.426307 0 0 0 -13.4263,-13.42631 13.426307,13.426307 0 0 0 -13.4264,13.42631 c 0,5.50478 3.3029,10.23084 8.0558,12.2985 v 2.90008 c -6.2566,-2.22877 -10.741,-8.19005 -10.741,-15.19858 a 16.111568,16.111568 0 0 1 16.1116,-16.11157 z"
         id="path5"
         style="fill:#ffd733;fill-opacity:1;stroke-width:0.999999" /></g><g
       id="g7"
       transform="translate(55.990196)"><rect
         style="fill:#87de87;stroke:#1a1a18;stroke-width:3;stroke-linecap:square;stroke-linejoin:round;paint-order:markers fill stroke"
         id="rect9"
         width="121.64802"
         height="121.48117"
         x="918.48077"
         y="68.838074"
         rx="7.9999995"
         ry="8" /><path
         d="m 973.93427,118.83761 a 2.6852614,2.6852614 0 0 1 2.6853,-2.68526 2.6852614,2.6852614 0 0 1 2.6852,2.68526 v 12.00312 l 3.2492,0.34908 13.2652,5.88072 c 1.4232,0.64447 2.2824,2.06765 2.2824,3.62511 v 11.70774 c -0.081,2.20191 -1.8259,3.94733 -4.0278,4.02789 h -17.4542 c -1.0204,0 -1.9871,-0.40279 -2.6853,-1.15466 l -13.1578,-11.2781 1.9871,-2.06765 c 0.5102,-0.56391 1.2352,-0.85929 1.9871,-0.85929 h 0.5908 l 8.5928,4.61865 v -26.85261 m 2.6853,-10.74105 a 10.741046,10.741046 0 0 1 10.741,10.74105 c 0,4.02789 -2.1482,7.43817 -5.3705,9.291 v -3.27602 c 1.638,-1.47689 2.6852,-3.6251 2.6852,-6.01498 a 8.0557842,8.0557842 0 0 0 -8.0557,-8.05579 8.0557842,8.0557842 0 0 0 -8.0558,8.05579 c 0,2.38988 1.0472,4.53809 2.6852,6.01498 v 3.27602 c -3.2223,-1.85283 -5.3705,-5.26311 -5.3705,-9.291 a 10.741046,10.741046 0 0 1 10.7411,-10.74105 m 0,-5.37052 a 16.111568,16.111568 0 0 1 16.1115,16.11157 c 0,4.56494 -1.9065,8.67339 -4.9409,11.62718 l -2.6852,-1.20837 c 3.0075,-2.47044 4.9409,-6.2298 4.9409,-10.41881 a 13.426307,13.426307 0 0 0 -13.4263,-13.42631 13.426307,13.426307 0 0 0 -13.4264,13.42631 c 0,5.50478 3.3029,10.23084 8.0558,12.2985 v 2.90008 c -6.2566,-2.22877 -10.741,-8.19005 -10.741,-15.19858 a 16.111568,16.111568 0 0 1 16.1116,-16.11157 z"
         id="path6"
         style="fill:#5fd35f;fill-opacity:1;stroke-width:0.999999" /></g><g
       id="g11"
       transform="translate(55.990196)"><rect
         style="fill:#80e5ff;stroke:#1a1a18;stroke-width:3;stroke-linecap:square;stroke-linejoin:round;paint-order:markers fill stroke"
         id="rect10"
         width="121.64802"
         height="121.48117"
         x="474.33206"
         y="214.84296"
         rx="7.9999995"
         ry="8" /><path
         d="m 529.78557,264.8425 a 2.6852614,2.6852614 0 0 1 2.68526,-2.68526 2.6852614,2.6852614 0 0 1 2.68526,2.68526 v 12.00312 l 3.24917,0.34908 13.26519,5.88072 c 1.42319,0.64447 2.28247,2.06765 2.28247,3.62511 v 11.70774 c -0.0806,2.20191 -1.82598,3.94733 -4.02789,4.02789 h -17.4542 c -1.0204,0 -1.98709,-0.40279 -2.68526,-1.15466 l -13.15778,-11.2781 1.98709,-2.06765 c 0.5102,-0.56391 1.23522,-0.85929 1.9871,-0.85929 h 0.59075 l 8.59284,4.61865 V 264.8425 m 2.68526,-10.74105 a 10.741046,10.741046 0 0 1 10.74105,10.74105 c 0,4.02789 -2.14821,7.43817 -5.37053,9.291 v -3.27602 c 1.63801,-1.47689 2.68527,-3.6251 2.68527,-6.01498 a 8.0557842,8.0557842 0 0 0 -8.05579,-8.05579 8.0557842,8.0557842 0 0 0 -8.05578,8.05579 c 0,2.38988 1.04725,4.53809 2.68526,6.01498 v 3.27602 c -3.22232,-1.85283 -5.37052,-5.26311 -5.37052,-9.291 a 10.741046,10.741046 0 0 1 10.74104,-10.74105 m 0,-5.37052 a 16.111568,16.111568 0 0 1 16.11157,16.11157 c 0,4.56494 -1.90654,8.67339 -4.94088,11.62718 l -2.68526,-1.20837 c 3.00749,-2.47044 4.94088,-6.2298 4.94088,-10.41881 a 13.426307,13.426307 0 0 0 -13.42631,-13.42631 13.426307,13.426307 0 0 0 -13.42631,13.42631 c 0,5.50478 3.30288,10.23084 8.05579,12.2985 v 2.90008 c -6.25666,-2.22877 -10.74105,-8.19005 -10.74105,-15.19858 a 16.111568,16.111568 0 0 1 16.11157,-16.11157 z"
         id="path7"
         style="fill:#4cdaff;fill-opacity:1;stroke-width:0.999999" /></g><g
       id="g10"
       transform="translate(55.990196)"><rect
         style="fill:#80b3ff;stroke:#1a1a18;stroke-width:3;stroke-linecap:square;stroke-linejoin:round;paint-order:markers fill stroke"
         id="rect11"
         width="121.64802"
         height="121.48117"
         x="622.38159"
         y="214.84296"
         rx="7.9999995"
         ry="8" /><path
         d="m 677.83511,264.8425 a 2.6852614,2.6852614 0 0 1 2.68526,-2.68526 2.6852614,2.6852614 0 0 1 2.68526,2.68526 v 12.00312 l 3.24917,0.34908 13.26519,5.88072 c 1.42319,0.64447 2.28247,2.06765 2.28247,3.62511 v 11.70774 c -0.0806,2.20191 -1.82598,3.94733 -4.02789,4.02789 h -17.4542 c -1.0204,0 -1.98709,-0.40279 -2.68526,-1.15466 l -13.15778,-11.2781 1.98709,-2.06765 c 0.5102,-0.56391 1.23522,-0.85929 1.9871,-0.85929 h 0.59075 l 8.59284,4.61865 V 264.8425 m 2.68526,-10.74105 a 10.741046,10.741046 0 0 1 10.74105,10.74105 c 0,4.02789 -2.14821,7.43817 -5.37053,9.291 v -3.27602 c 1.63801,-1.47689 2.68527,-3.6251 2.68527,-6.01498 a 8.0557842,8.0557842 0 0 0 -8.05579,-8.05579 8.0557842,8.0557842 0 0 0 -8.05578,8.05579 c 0,2.38988 1.04725,4.53809 2.68526,6.01498 v 3.27602 c -3.22232,-1.85283 -5.37052,-5.26311 -5.37052,-9.291 a 10.741046,10.741046 0 0 1 10.74104,-10.74105 m 0,-5.37052 a 16.111568,16.111568 0 0 1 16.11157,16.11157 c 0,4.56494 -1.90654,8.67339 -4.94088,11.62718 l -2.68526,-1.20837 c 3.00749,-2.47044 4.94088,-6.2298 4.94088,-10.41881 a 13.426307,13.426307 0 0 0 -13.42631,-13.42631 13.426307,13.426307 0 0 0 -13.42631,13.42631 c 0,5.50478 3.30288,10.23084 8.05579,12.2985 v 2.90008 c -6.25666,-2.22877 -10.74105,-8.19005 -10.74105,-15.19858 a 16.111568,16.111568 0 0 1 16.11157,-16.11157 z"
         id="path8"
         style="fill:#4c95ff;fill-opacity:1;stroke-width:0.999999" /></g><g
       id="g9"
       transform="translate(55.990196)"><rect
         style="fill:#cd87de;stroke:#1a1a18;stroke-width:3;stroke-linecap:square;stroke-linejoin:round;paint-order:markers fill stroke"
         id="rect12"
         width="121.64802"
         height="121.48117"
         x="770.43115"
         y="214.84296"
         rx="7.9999995"
         ry="8" /><path
         d="m 825.88467,264.8425 a 2.6852614,2.6852614 0 0 1 2.6853,-2.68526 2.6852614,2.6852614 0 0 1 2.6852,2.68526 v 12.00312 l 3.2492,0.34908 13.2652,5.88072 c 1.4232,0.64447 2.2824,2.06765 2.2824,3.62511 v 11.70774 c -0.081,2.20191 -1.8259,3.94733 -4.0278,4.02789 h -17.4542 c -1.0204,0 -1.9871,-0.40279 -2.6853,-1.15466 l -13.1578,-11.2781 1.9871,-2.06765 c 0.5102,-0.56391 1.2352,-0.85929 1.9871,-0.85929 h 0.5908 l 8.5928,4.61865 V 264.8425 m 2.6853,-10.74105 a 10.741046,10.741046 0 0 1 10.741,10.74105 c 0,4.02789 -2.1482,7.43817 -5.3705,9.291 v -3.27602 c 1.638,-1.47689 2.6852,-3.6251 2.6852,-6.01498 a 8.0557842,8.0557842 0 0 0 -8.0557,-8.05579 8.0557842,8.0557842 0 0 0 -8.0558,8.05579 c 0,2.38988 1.0472,4.53809 2.6852,6.01498 v 3.27602 c -3.2223,-1.85283 -5.3705,-5.26311 -5.3705,-9.291 a 10.741046,10.741046 0 0 1 10.7411,-10.74105 m 0,-5.37052 a 16.111568,16.111568 0 0 1 16.1115,16.11157 c 0,4.56494 -1.9065,8.67339 -4.9409,11.62718 l -2.6852,-1.20837 c 3.0075,-2.47044 4.9409,-6.2298 4.9409,-10.41881 a 13.426307,13.426307 0 0 0 -13.4263,-13.42631 13.426307,13.426307 0 0 0 -13.4264,13.42631 c 0,5.50478 3.3029,10.23084 8.0558,12.2985 v 2.90008 c -6.2566,-2.22877 -10.741,-8.19005 -10.741,-15.19858 a 16.111568,16.111568 0 0 1 16.1116,-16.11157 z"
         id="path9"
         style="fill:#bc5fd3;fill-opacity:1;stroke-width:0.999999" /></g><g
       id="g8"
       transform="translate(55.990196)"><rect
         style="fill:#ffffff;stroke:#1a1a18;stroke-width:3;stroke-linecap:square;stroke-linejoin:round;paint-order:markers fill stroke"
         id="rect13"
         width="121.64802"
         height="121.48117"
         x="918.48077"
         y="214.84296"
         rx="7.9999995"
         ry="8" /><path
         d="m 973.93427,264.8425 a 2.6852614,2.6852614 0 0 1 2.6853,-2.68526 2.6852614,2.6852614 0 0 1 2.6852,2.68526 v 12.00312 l 3.2492,0.34908 13.2652,5.88072 c 1.4232,0.64447 2.2824,2.06765 2.2824,3.62511 v 11.70774 c -0.081,2.20191 -1.8259,3.94733 -4.0278,4.02789 h -17.4542 c -1.0204,0 -1.9871,-0.40279 -2.6853,-1.15466 l -13.1578,-11.2781 1.9871,-2.06765 c 0.5102,-0.56391 1.2352,-0.85929 1.9871,-0.85929 h 0.5908 l 8.5928,4.61865 V 264.8425 m 2.6853,-10.74105 a 10.741046,10.741046 0 0 1 10.741,10.74105 c 0,4.02789 -2.1482,7.43817 -5.3705,9.291 v -3.27602 c 1.638,-1.47689 2.6852,-3.6251 2.6852,-6.01498 a 8.0557842,8.0557842 0 0 0 -8.0557,-8.05579 8.0557842,8.0557842 0 0 0 -8.0558,8.05579 c 0,2.38988 1.0472,4.53809 2.6852,6.01498 v 3.27602 c -3.2223,-1.85283 -5.3705,-5.26311 -5.3705,-9.291 a 10.741046,10.741046 0 0 1 10.7411,-10.74105 m 0,-5.37052 a 16.111568,16.111568 0 0 1 16.1115,16.11157 c 0,4.56494 -1.9065,8.67339 -4.9409,11.62718 l -2.6852,-1.20837 c 3.0075,-2.47044 4.9409,-6.2298 4.9409,-10.41881 a 13.426307,13.426307 0 0 0 -13.4263,-13.42631 13.426307,13.426307 0 0 0 -13.4264,13.42631 c 0,5.50478 3.3029,10.23084 8.0558,12.2985 v 2.90008 c -6.2566,-2.22877 -10.741,-8.19005 -10.741,-15.19858 a 16.111568,16.111568 0 0 1 16.1116,-16.11157 z"
         id="path10"
         style="fill:#a6a6a6;fill-opacity:1;stroke-width:0.999999" /></g><title
       id="title1-535">led-strip</title><title
       id="title1-2">led-strip-variant</title><g
       id="g14"><rect
         style="fill:#1c1f24;fill-opacity:1;stroke:#ffffff;stroke-width:3;stroke-linecap:square;stroke-linejoin:round;stroke-opacity:1;paint-order:markers fill stroke"
         id="rect14"
         width="121.64802"
         height="267.44611"
         x="1122.5206"
         y="68.838074"
         rx="7.9999995"
         ry="8" /><path
         d="m 1147.2184,166.63454 -3.7922,15.60811 69.2186,17.3246 3.7921,-15.6081 -69.2185,-17.32461 m 12.5345,15.52828 -7.7044,-1.91609 1.9161,-7.78409 7.7043,1.91608 -1.916,7.7841 m 15.3685,3.87208 -7.7441,-1.91608 1.9959,-7.82402 7.6643,1.95601 -1.9161,7.78409 m 15.4085,3.83217 -7.7043,-1.91608 1.9161,-7.7841 7.6644,1.91609 -1.8762,7.78409 m 15.3686,3.87209 -7.7042,-1.91608 1.9161,-7.82402 7.7042,1.956 -1.9161,7.7841 m -51.854,11.81585 -3.7922,15.6081 69.2185,17.3246 3.7922,-15.56819 -69.2185,-17.36451 m 12.5343,15.56818 -7.6643,-1.95599 1.8762,-7.7841 7.7042,1.91608 -1.9161,7.82401 m 15.3687,3.83218 -7.6643,-1.91609 1.8761,-7.78409 7.7043,1.91608 -1.9161,7.7841 m 15.3685,3.87209 -7.6643,-1.95601 1.9161,-7.78409 7.7442,1.91608 -1.996,7.82402 m 15.4086,3.83216 -7.7043,-1.91608 1.9161,-7.7841 7.7042,1.91609 -1.916,7.78409 m -52.3331,-29.65939 18.9612,-7.62441 26.945,6.74621 -18.9613,7.62441 z"
         id="path1-7"
         style="fill:#ffffff;fill-opacity:1;stroke-width:1" /></g></g></svg>
