<?xml version="1.0" encoding="UTF-8" standalone="no"?>
<svg
   width="2400"
   height="1080"
   viewBox="0 0 634.99999 285.75"
   version="1.1"
   id="svg5"
   inkscape:version="1.2.2 (b0a8486541, 2022-12-01)"
   sodipodi:docname="panel-floor.svg"
   xml:space="preserve"
   xmlns:inkscape="http://www.inkscape.org/namespaces/inkscape"
   xmlns:sodipodi="http://sodipodi.sourceforge.net/DTD/sodipodi-0.dtd"
   xmlns="http://www.w3.org/2000/svg"
   xmlns:svg="http://www.w3.org/2000/svg"><sodipodi:namedview
     id="namedview7"
     pagecolor="#ffffff"
     bordercolor="#666666"
     borderopacity="1.0"
     inkscape:showpageshadow="2"
     inkscape:pageopacity="0.0"
     inkscape:pagecheckerboard="0"
     inkscape:deskcolor="#d1d1d1"
     inkscape:document-units="px"
     showgrid="false"
     inkscape:zoom="0.25000001"
     inkscape:cx="1182"
     inkscape:cy="365.99999"
     inkscape:window-width="2560"
     inkscape:window-height="1379"
     inkscape:window-x="1920"
     inkscape:window-y="0"
     inkscape:window-maximized="1"
     inkscape:current-layer="g678"
     showguides="true"><inkscape:grid
       type="xygrid"
       id="grid7679"
       spacingx="2.1166667"
       spacingy="2.1166667"
       originx="0"
       originy="0" /></sodipodi:namedview><defs
     id="defs2"><rect
       x="-12.409759"
       y="139.69167"
       width="315.66769"
       height="33.974464"
       id="rect17970" /><style
       type="text/css"
       id="style1264" /></defs><g
     inkscape:label="Слой 1"
     inkscape:groupmode="layer"
     id="layer1"><title
       id="title5085">text-box-search-outline</title><title
       id="title4389">lightbulb-group-off</title><title
       id="title4209">exit-run</title><g
       id="g484"
       transform="translate(23.806045)" /><title
       id="title47349">lightbulb-on</title><g
       id="g678"
       transform="translate(-0.61975857,-0.52398746)"><rect
         style="fill:#1f588d;fill-opacity:1;stroke-width:0.529166;stroke-linecap:round;stroke-linejoin:round;paint-order:markers fill stroke;stop-color:#000000"
         id="rect55736"
         width="635"
         height="285.75"
         x="0.61975604"
         y="0.52398634" /><g
         id="g2866"><rect
           style="fill:#1f588d;fill-opacity:1;stroke:#f9f9f9;stroke-width:0.529167;stroke-linecap:round;stroke-linejoin:round;stroke-dasharray:none;stroke-opacity:1;paint-order:markers fill stroke;stop-color:#000000"
           id="rect358"
           width="197.11392"
           height="126.29002"
           x="11.863595"
           y="11.969939"
           rx="2.1166666"
           ry="2.1166666" /><g
           id="g2746"
           transform="translate(-0.16632463,0.84935695)"><path
             d="m 34.036551,27.042955 c -0.881388,0 -1.586518,0.704954 -1.586518,1.586153 0,0.881194 0.70513,1.586151 1.586518,1.586151 0.881381,0 1.58651,-0.704957 1.58651,-1.586151 0,-0.881199 -0.705129,-1.586153 -1.58651,-1.586153 m 4.997524,0.704954 a 6.4606375,6.4591644 0 0 0 6.46062,6.459165 v -1.17199 a 5.2883799,5.2871741 0 0 1 -5.288381,-5.287175 h -1.172239 m 2.344513,0 c 0,2.273486 1.842122,4.115184 4.116107,4.115184 v -1.180799 c -1.621757,0 -2.935044,-1.312982 -2.935044,-2.934385 h -1.181063 m 2.353337,0 a 1.7627933,1.7623914 0 0 0 1.76277,1.762393 v -1.762393 h -1.76277 m -11.528671,2.670025 c -0.149908,0 -0.299811,0.0263 -0.440688,0.0705 l -4.777202,1.489218 v 4.58222 h 1.586517 v -3.233988 l 1.859743,-0.581589 -3.44626,13.508729 h 1.586517 l 2.529626,-7.146498 2.053656,2.740521 v 4.405977 H 34.74168 V 40.60456 l -2.194705,-4.000628 0.643433,-2.529031 0.951909,1.603774 h 4.301227 v -1.586149 h -3.190649 l -1.762806,-2.93438 C 33.225585,30.717547 32.749715,30.41794 32.203254,30.41794 Z"
             id="path17138"
             style="fill:#517fab;fill-opacity:1;stroke-width:0.264583" /><text
             xml:space="preserve"
             style="font-size:29.7816px;line-height:1.25;font-family:Ubuntu;-inkscape-font-specification:Ubuntu;fill:#f9f9f9;fill-opacity:1;stroke-width:0.264583"
             x="194.92044"
             y="81.51519"
             id="text54126"
             class=""
             transform="scale(1.0000643,0.9999357)"><tspan
               sodipodi:role="line"
               id="tspan54124"
               style="text-align:end;text-anchor:end;fill:#f9f9f9;fill-opacity:1;stroke-width:0.264583"
               x="194.92044"
               y="81.51519">18.5 °C</tspan></text><g
             id="g978"
             transform="matrix(5.9087851,0,0,5.908021,-435.36891,-274.90101)"
             style="fill:#f5f6f7;fill-opacity:1;stroke-width:0.169251"><path
               d="m 82.895702,59.93294 a 2.5347732,2.5347732 0 0 1 2.534773,2.534773 c 0,0.937866 -0.511177,1.757443 -1.267386,2.196803 v 0.760432 A 0.42246221,0.42246221 0 0 1 83.740627,65.84741 H 82.050779 A 0.42246221,0.42246221 0 0 1 81.628316,65.424948 V 64.664516 C 80.872108,64.225156 80.36093,63.405579 80.36093,62.467713 a 2.5347732,2.5347732 0 0 1 2.534772,-2.534773 m 0.844925,6.336934 v 0.42246 a 0.42246221,0.42246221 0 0 1 -0.422461,0.422463 H 82.47324 a 0.42246221,0.42246221 0 0 1 -0.422461,-0.422463 v -0.42246 h 1.689848 m 2.534774,-4.224623 h 1.267386 v 0.844924 h -1.267386 v -0.844924 m -8.026782,0 h 1.267387 v 0.844924 h -1.267387 v -0.844924 m 5.069547,-4.224622 v 1.267387 H 82.47324 v -1.267387 h 0.844926 m -3.413496,1.056154 0.899845,0.90407 -0.599895,0.595672 -0.899846,-0.895621 0.599896,-0.604121 m 5.082221,0.899846 0.89562,-0.899846 0.604121,0.604121 -0.899844,0.895621 z"
               id="path976"
               style="fill:#f5f6f7;fill-opacity:1;stroke-width:0.0447808"
               class="" /></g><text
             xml:space="preserve"
             style="font-size:14.8887px;line-height:1.25;font-family:Ubuntu;-inkscape-font-specification:Ubuntu;fill:#f9f9f9;fill-opacity:1;stroke-width:0.264583"
             x="194.92032"
             y="102.37714"
             id="text2107"
             class=""
             transform="scale(1.0000643,0.9999357)"><tspan
               sodipodi:role="line"
               id="tspan2105"
               style="text-align:end;text-anchor:end;fill:#f9f9f9;fill-opacity:1;stroke-width:0.264583"
               x="194.92032"
               y="102.37714">40 %</tspan></text><text
             xml:space="preserve"
             style="font-size:14.8887px;line-height:1.25;font-family:Ubuntu;-inkscape-font-specification:Ubuntu;fill:#f9f9f9;fill-opacity:1;stroke-width:0.264583"
             x="195.27766"
             y="118.86803"
             id="text2128"
             class=""
             transform="scale(1.0000643,0.9999357)"><tspan
               sodipodi:role="line"
               id="tspan2126"
               style="text-align:end;text-anchor:end;fill:#f9f9f9;fill-opacity:1;stroke-width:0.264583"
               x="195.27766"
               y="118.86803">800 ppm</tspan></text><text
             xml:space="preserve"
             style="font-size:14.8887px;line-height:1.25;font-family:Ubuntu;-inkscape-font-specification:Ubuntu;fill:#f9f9f9;fill-opacity:1;stroke-width:0.264583"
             x="195.27766"
             y="37.236168"
             id="text2707"
             class=""
             transform="scale(1.0000643,0.9999357)"><tspan
               sodipodi:role="line"
               id="tspan2705"
               style="text-align:end;text-anchor:end;fill:#f9f9f9;fill-opacity:1;stroke-width:0.264583"
               x="195.27766"
               y="37.236168">Коридор</tspan></text></g></g><g
         id="g2894"
         transform="translate(207.6992)"><rect
           style="fill:#1f588d;fill-opacity:1;stroke:#f9f9f9;stroke-width:0.529167;stroke-linecap:round;stroke-linejoin:round;stroke-dasharray:none;stroke-opacity:1;paint-order:markers fill stroke;stop-color:#000000"
           id="rect2868"
           width="197.11392"
           height="126.29002"
           x="11.863595"
           y="11.969939"
           rx="2.1166666"
           ry="2.1166666" /><g
           id="g2892"
           transform="translate(-0.16632463,0.84935695)"><path
             d="m 34.036551,27.042955 c -0.881388,0 -1.586518,0.704954 -1.586518,1.586153 0,0.881194 0.70513,1.586151 1.586518,1.586151 0.881381,0 1.58651,-0.704957 1.58651,-1.586151 0,-0.881199 -0.705129,-1.586153 -1.58651,-1.586153 m 4.997524,0.704954 a 6.4606375,6.4591644 0 0 0 6.46062,6.459165 v -1.17199 a 5.2883799,5.2871741 0 0 1 -5.288381,-5.287175 h -1.172239 m 2.344513,0 c 0,2.273486 1.842122,4.115184 4.116107,4.115184 v -1.180799 c -1.621757,0 -2.935044,-1.312982 -2.935044,-2.934385 h -1.181063 m 2.353337,0 a 1.7627933,1.7623914 0 0 0 1.76277,1.762393 v -1.762393 h -1.76277 m -11.528671,2.670025 c -0.149908,0 -0.299811,0.0263 -0.440688,0.0705 l -4.777202,1.489218 v 4.58222 h 1.586517 v -3.233988 l 1.859743,-0.581589 -3.44626,13.508729 h 1.586517 l 2.529626,-7.146498 2.053656,2.740521 v 4.405977 H 34.74168 V 40.60456 l -2.194705,-4.000628 0.643433,-2.529031 0.951909,1.603774 h 4.301227 v -1.586149 h -3.190649 l -1.762806,-2.93438 C 33.225585,30.717547 32.749715,30.41794 32.203254,30.41794 Z"
             id="path2870"
             style="fill:#ff9b00;fill-opacity:1;stroke-width:0.264583" /><title
             id="title6026">window-closed-variant</title><path
             d="M 71.937162,42.755378 V 28.097648 H 57.279431 v 14.65773 h -1.628616 v 2.442955 H 73.565812 V 42.755378 M 70.308544,29.726285 v 5.700228 h -4.88591 v -5.700228 m -6.514556,0 h 4.885909 v 5.700228 h -4.885909 m 0,7.328865 v -5.700227 h 4.885909 v 5.700227 m 1.628647,0 v -5.700227 h 4.88591 v 5.700227 z"
             id="path6028"
             style="fill:#ff9b00;fill-opacity:1;stroke-width:0.264583" /><path
             d="m 100.73302,38.435639 -2.136013,0.568382 -1.83349,-1.035919 v -2.640217 l 1.83349,-1.035919 2.136013,0.568378 0.4767,-1.76931 -1.622633,-0.430872 0.421703,-1.622632 -1.769313,-0.476705 -0.56838,2.136009 -1.83349,1.035919 -2.24601,-1.32011 v -2.071837 l 1.56762,-1.567631 -1.30177,-1.292612 -1.1826,1.182603 -1.1826,-1.182603 -1.30177,1.292612 1.56763,1.567631 v 2.071837 l -2.29186,1.32011 -1.83348,-1.035919 -0.53171,-2.136009 -1.76015,0.476705 0.43087,1.622632 -1.62263,0.430872 0.4767,1.76931 2.13601,-0.568378 1.83349,1.035919 v 2.649386 l -1.83349,1.035919 -2.13601,-0.568382 -0.4767,1.769314 1.62263,0.430867 -0.43087,1.61347 1.76932,0.476705 0.56837,-2.13601 1.83349,-1.035919 2.24602,1.32011 v 2.071837 l -1.56763,1.567631 1.30177,1.292606 1.1826,-1.182597 1.1826,1.182597 1.29261,-1.292606 -1.55846,-1.567631 v -2.071837 l 2.29185,-1.329278 1.83349,1.035919 0.56838,2.13601 1.723473,-0.467537 -0.430873,-1.622637 1.622643,-0.430868 -0.46754,-1.769314 m -10.350023,-3.107755 2.29185,-1.329278 2.29186,1.329278 v 2.640218 l -2.29186,1.329278 -2.29186,-1.329278 z"
             id="path5480-3-6"
             style="fill:#0084ff;fill-opacity:1;stroke-width:0.264583" /><text
             xml:space="preserve"
             style="font-size:29.7816px;line-height:1.25;font-family:Ubuntu;-inkscape-font-specification:Ubuntu;fill:#f9f9f9;fill-opacity:1;stroke-width:0.264583"
             x="194.92044"
             y="81.51519"
             id="text2874"
             class=""
             transform="scale(1.0000643,0.9999357)"><tspan
               sodipodi:role="line"
               id="tspan2872"
               style="text-align:end;text-anchor:end;fill:#f9f9f9;fill-opacity:1;stroke-width:0.264583"
               x="194.92044"
               y="81.51519">18.5 °C</tspan></text><g
             id="g2878"
             transform="matrix(5.9087851,0,0,5.908021,-435.36891,-274.90101)"
             style="fill:#f5f6f7;fill-opacity:1;stroke-width:0.169251"><path
               d="m 82.895702,59.93294 a 2.5347732,2.5347732 0 0 1 2.534773,2.534773 c 0,0.937866 -0.511177,1.757443 -1.267386,2.196803 v 0.760432 A 0.42246221,0.42246221 0 0 1 83.740627,65.84741 H 82.050779 A 0.42246221,0.42246221 0 0 1 81.628316,65.424948 V 64.664516 C 80.872108,64.225156 80.36093,63.405579 80.36093,62.467713 a 2.5347732,2.5347732 0 0 1 2.534772,-2.534773 m 0.844925,6.336934 v 0.42246 a 0.42246221,0.42246221 0 0 1 -0.422461,0.422463 H 82.47324 a 0.42246221,0.42246221 0 0 1 -0.422461,-0.422463 v -0.42246 h 1.689848 m 2.534774,-4.224623 h 1.267386 v 0.844924 h -1.267386 v -0.844924 m -8.026782,0 h 1.267387 v 0.844924 h -1.267387 v -0.844924 m 5.069547,-4.224622 v 1.267387 H 82.47324 v -1.267387 h 0.844926 m -3.413496,1.056154 0.899845,0.90407 -0.599895,0.595672 -0.899846,-0.895621 0.599896,-0.604121 m 5.082221,0.899846 0.89562,-0.899846 0.604121,0.604121 -0.899844,0.895621 z"
               id="path2876"
               style="fill:#fec901;fill-opacity:1;stroke-width:0.0447808"
               class="" /></g><text
             xml:space="preserve"
             style="font-size:14.8887px;line-height:1.25;font-family:Ubuntu;-inkscape-font-specification:Ubuntu;fill:#f9f9f9;fill-opacity:1;stroke-width:0.264583"
             x="194.92032"
             y="102.37714"
             id="text2882"
             class=""
             transform="scale(1.0000643,0.9999357)"><tspan
               sodipodi:role="line"
               id="tspan2880"
               style="text-align:end;text-anchor:end;fill:#f9f9f9;fill-opacity:1;stroke-width:0.264583"
               x="194.92032"
               y="102.37714">10 %</tspan></text><text
             xml:space="preserve"
             style="font-size:14.8887px;line-height:1.25;font-family:Ubuntu;-inkscape-font-specification:Ubuntu;fill:#f9f9f9;fill-opacity:1;stroke-width:0.264583"
             x="195.27766"
             y="118.86803"
             id="text2886"
             class=""
             transform="scale(1.0000643,0.9999357)"><tspan
               sodipodi:role="line"
               id="tspan2884"
               style="text-align:end;text-anchor:end;fill:#f9f9f9;fill-opacity:1;stroke-width:0.264583"
               x="195.27766"
               y="118.86803">4000 ppm</tspan></text><text
             xml:space="preserve"
             style="font-size:14.8887px;line-height:1.25;font-family:Ubuntu;-inkscape-font-specification:Ubuntu;fill:#f9f9f9;fill-opacity:1;stroke-width:0.264583"
             x="195.27766"
             y="37.236168"
             id="text2890"
             class=""
             transform="scale(1.0000643,0.9999357)"><tspan
               sodipodi:role="line"
               id="tspan2888"
               style="text-align:end;text-anchor:end;fill:#f9f9f9;fill-opacity:1;stroke-width:0.264583"
               x="195.27766"
               y="37.236168">Кухня</tspan></text></g></g><g
         id="g2922"
         transform="translate(415.3984)"><rect
           style="fill:#1f588d;fill-opacity:1;stroke:#f9f9f9;stroke-width:0.529167;stroke-linecap:round;stroke-linejoin:round;stroke-dasharray:none;stroke-opacity:1;paint-order:markers fill stroke;stop-color:#000000"
           id="rect2896"
           width="197.11392"
           height="126.29002"
           x="11.863595"
           y="11.969939"
           rx="2.1166666"
           ry="2.1166666" /><g
           id="g2920"
           transform="translate(-0.16632463,0.84935695)"><path
             d="m 34.036551,27.042955 c -0.881388,0 -1.586518,0.704954 -1.586518,1.586153 0,0.881194 0.70513,1.586151 1.586518,1.586151 0.881381,0 1.58651,-0.704957 1.58651,-1.586151 0,-0.881199 -0.705129,-1.586153 -1.58651,-1.586153 m 4.997524,0.704954 a 6.4606375,6.4591644 0 0 0 6.46062,6.459165 v -1.17199 a 5.2883799,5.2871741 0 0 1 -5.288381,-5.287175 h -1.172239 m 2.344513,0 c 0,2.273486 1.842122,4.115184 4.116107,4.115184 v -1.180799 c -1.621757,0 -2.935044,-1.312982 -2.935044,-2.934385 h -1.181063 m 2.353337,0 a 1.7627933,1.7623914 0 0 0 1.76277,1.762393 v -1.762393 h -1.76277 m -11.528671,2.670025 c -0.149908,0 -0.299811,0.0263 -0.440688,0.0705 l -4.777202,1.489218 v 4.58222 h 1.586517 v -3.233988 l 1.859743,-0.581589 -3.44626,13.508729 h 1.586517 l 2.529626,-7.146498 2.053656,2.740521 v 4.405977 H 34.74168 V 40.60456 l -2.194705,-4.000628 0.643433,-2.529031 0.951909,1.603774 h 4.301227 v -1.586149 h -3.190649 l -1.762806,-2.93438 C 33.225585,30.717547 32.749715,30.41794 32.203254,30.41794 Z"
             id="path2898"
             style="fill:#517fab;fill-opacity:1;stroke-width:0.264583" /><title
             id="title11287">fan</title><path
             d="m 64.595548,35.796235 a 0.85175296,0.85175296 0 0 0 -0.851743,0.851754 0.85175296,0.85175296 0 0 0 0.851743,0.851751 0.85175296,0.85175296 0 0 0 0.851742,-0.851751 0.85175296,0.85175296 0 0 0 -0.851742,-0.851754 m 0.425872,-7.665777 c 3.832903,0 3.926582,3.04076 1.916434,4.045827 -0.843211,0.417359 -1.217991,1.311699 -1.379823,2.103832 0.408841,0.170361 0.766562,0.434392 1.039134,0.775094 3.151491,-1.703505 6.541462,-1.030621 6.541462,2.018653 0,3.832889 -3.040749,3.918067 -4.045824,1.899411 -0.42587,-0.843235 -1.328734,-1.218006 -2.120856,-1.37984 -0.170297,0.408841 -0.434402,0.75806 -0.775092,1.047657 1.694984,3.142969 1.022102,6.524428 -2.027178,6.524428 -3.832905,0 -3.909554,-3.049275 -1.899407,-4.054346 0.834713,-0.41736 1.209496,-1.30318 1.379825,-2.086794 -0.41734,-0.170361 -0.783593,-0.442911 -1.056164,-0.783613 -3.14296,1.686469 -6.515902,1.022101 -6.515902,-2.018654 0,-3.832887 3.032219,-3.926581 4.037293,-1.907927 0.425871,0.843236 1.320235,1.209491 2.112358,1.37132 0.161927,-0.408842 0.434401,-0.766576 0.783622,-1.039136 C 61.316285,31.5034 61.9892,28.130458 65.02142,28.130458 Z"
             id="path11289"
             style="fill:#0084ff;fill-opacity:1;stroke-width:0.264585" /><text
             xml:space="preserve"
             style="font-size:29.7816px;line-height:1.25;font-family:Ubuntu;-inkscape-font-specification:Ubuntu;fill:#f9f9f9;fill-opacity:1;stroke-width:0.264583"
             x="194.92044"
             y="81.51519"
             id="text2902"
             class=""
             transform="scale(1.0000643,0.9999357)"><tspan
               sodipodi:role="line"
               id="tspan2900"
               style="text-align:end;text-anchor:end;fill:#f9f9f9;fill-opacity:1;stroke-width:0.264583"
               x="194.92044"
               y="81.51519">18.5 °C</tspan></text><g
             id="g2906"
             transform="matrix(5.9087851,0,0,5.908021,-435.36891,-274.90101)"
             style="fill:#f5f6f7;fill-opacity:1;stroke-width:0.169251"><path
               d="m 82.895702,59.93294 a 2.5347732,2.5347732 0 0 1 2.534773,2.534773 c 0,0.937866 -0.511177,1.757443 -1.267386,2.196803 v 0.760432 A 0.42246221,0.42246221 0 0 1 83.740627,65.84741 H 82.050779 A 0.42246221,0.42246221 0 0 1 81.628316,65.424948 V 64.664516 C 80.872108,64.225156 80.36093,63.405579 80.36093,62.467713 a 2.5347732,2.5347732 0 0 1 2.534772,-2.534773 m 0.844925,6.336934 v 0.42246 a 0.42246221,0.42246221 0 0 1 -0.422461,0.422463 H 82.47324 a 0.42246221,0.42246221 0 0 1 -0.422461,-0.422463 v -0.42246 h 1.689848 m 2.534774,-4.224623 h 1.267386 v 0.844924 h -1.267386 v -0.844924 m -8.026782,0 h 1.267387 v 0.844924 h -1.267387 v -0.844924 m 5.069547,-4.224622 v 1.267387 H 82.47324 v -1.267387 h 0.844926 m -3.413496,1.056154 0.899845,0.90407 -0.599895,0.595672 -0.899846,-0.895621 0.599896,-0.604121 m 5.082221,0.899846 0.89562,-0.899846 0.604121,0.604121 -0.899844,0.895621 z"
               id="path2904"
               style="fill:#f5f6f7;fill-opacity:1;stroke-width:0.0447808"
               class="" /></g><text
             xml:space="preserve"
             style="font-size:14.8887px;line-height:1.25;font-family:Ubuntu;-inkscape-font-specification:Ubuntu;fill:#f9f9f9;fill-opacity:1;stroke-width:0.264583"
             x="194.92032"
             y="102.37714"
             id="text2910"
             class=""
             transform="scale(1.0000643,0.9999357)"><tspan
               sodipodi:role="line"
               id="tspan2908"
               style="text-align:end;text-anchor:end;fill:#f9f9f9;fill-opacity:1;stroke-width:0.264583"
               x="194.92032"
               y="102.37714">40 %</tspan></text><text
             xml:space="preserve"
             style="font-size:14.8887px;line-height:1.25;font-family:Ubuntu;-inkscape-font-specification:Ubuntu;fill:#f9f9f9;fill-opacity:1;stroke-width:0.264583"
             x="195.27766"
             y="118.86803"
             id="text2914"
             class=""
             transform="scale(1.0000643,0.9999357)"><tspan
               sodipodi:role="line"
               id="tspan2912"
               style="text-align:end;text-anchor:end;fill:#f9f9f9;fill-opacity:1;stroke-width:0.264583"
               x="195.27766"
               y="118.86803">800 ppm</tspan></text><text
             xml:space="preserve"
             style="font-size:14.8887px;line-height:1.25;font-family:Ubuntu;-inkscape-font-specification:Ubuntu;fill:#f9f9f9;fill-opacity:1;stroke-width:0.264583"
             x="195.27766"
             y="37.236168"
             id="text2918"
             class=""
             transform="scale(1.0000643,0.9999357)"><tspan
               sodipodi:role="line"
               id="tspan2916"
               style="text-align:end;text-anchor:end;fill:#f9f9f9;fill-opacity:1;stroke-width:0.264583"
               x="195.27766"
               y="37.236168">Санузел</tspan></text></g></g><g
         id="g2950"
         transform="translate(0,135.95719)"><rect
           style="fill:#1f588d;fill-opacity:1;stroke:#f9f9f9;stroke-width:0.529167;stroke-linecap:round;stroke-linejoin:round;stroke-dasharray:none;stroke-opacity:1;paint-order:markers fill stroke;stop-color:#000000"
           id="rect2924"
           width="197.11392"
           height="126.29002"
           x="11.863595"
           y="11.969939"
           rx="2.1166666"
           ry="2.1166666" /><g
           id="g2948"
           transform="translate(-0.16632463,0.84935695)"><path
             d="m 34.036551,27.042955 c -0.881388,0 -1.586518,0.704954 -1.586518,1.586153 0,0.881194 0.70513,1.586151 1.586518,1.586151 0.881381,0 1.58651,-0.704957 1.58651,-1.586151 0,-0.881199 -0.705129,-1.586153 -1.58651,-1.586153 m 4.997524,0.704954 a 6.4606375,6.4591644 0 0 0 6.46062,6.459165 v -1.17199 a 5.2883799,5.2871741 0 0 1 -5.288381,-5.287175 h -1.172239 m 2.344513,0 c 0,2.273486 1.842122,4.115184 4.116107,4.115184 v -1.180799 c -1.621757,0 -2.935044,-1.312982 -2.935044,-2.934385 h -1.181063 m 2.353337,0 a 1.7627933,1.7623914 0 0 0 1.76277,1.762393 v -1.762393 h -1.76277 m -11.528671,2.670025 c -0.149908,0 -0.299811,0.0263 -0.440688,0.0705 l -4.777202,1.489218 v 4.58222 h 1.586517 v -3.233988 l 1.859743,-0.581589 -3.44626,13.508729 h 1.586517 l 2.529626,-7.146498 2.053656,2.740521 v 4.405977 H 34.74168 V 40.60456 l -2.194705,-4.000628 0.643433,-2.529031 0.951909,1.603774 h 4.301227 v -1.586149 h -3.190649 l -1.762806,-2.93438 C 33.225585,30.717547 32.749715,30.41794 32.203254,30.41794 Z"
             id="path2926"
             style="fill:#517fab;fill-opacity:1;stroke-width:0.264583" /><title
             id="title5478">snowflake</title><path
             d="m 100.73302,38.435639 -2.136011,0.568382 -1.833486,-1.035919 v -2.640218 l 1.833486,-1.035919 2.136011,0.568378 0.4767,-1.76931 -1.622629,-0.430872 0.421699,-1.622632 -1.769312,-0.476705 -0.568379,2.136009 -1.833486,1.035919 -2.246019,-1.32011 v -2.071837 l 1.567629,-1.567631 -1.301774,-1.292612 -1.182596,1.182603 -1.1826,-1.182603 -1.301773,1.292612 1.567628,1.567631 v 2.071837 l -2.291855,1.32011 -1.833486,-1.035919 -0.53171,-2.136009 -1.760146,0.476705 0.430869,1.622632 -1.622633,0.430872 0.476705,1.76931 2.13601,-0.568378 1.833486,1.035919 v 2.649386 l -1.833486,1.035919 -2.13601,-0.568382 -0.476705,1.769314 1.622633,0.430868 -0.430869,1.613469 1.769314,0.476705 0.568378,-2.13601 1.833486,-1.035919 2.246019,1.32011 v 2.071837 l -1.567628,1.567631 1.301773,1.292606 1.1826,-1.182597 1.182596,1.182597 1.292609,-1.292606 -1.558464,-1.567631 v -2.071837 l 2.291856,-1.329278 1.833486,1.035919 0.568382,2.13601 1.723472,-0.467537 -0.430868,-1.622637 1.622638,-0.430868 -0.46754,-1.769314 m -10.350026,-3.107755 2.291859,-1.329278 2.291855,1.329278 v 2.640218 l -2.291855,1.329278 -2.29186,-1.329278 z"
             id="path5480"
             style="fill:#517fab;fill-opacity:1;stroke-width:0.264583" /><path
             d="M 71.937163,42.755377 V 28.097647 H 57.279436 v 14.65773 h -1.628614 v 2.442955 H 73.565813 V 42.755377 M 70.308556,29.726284 v 5.700228 h -4.88591 v -5.700228 m -6.51456,0 h 4.88591 v 5.700228 h -4.88591 m 0,7.328865 V 37.05515 h 4.88591 v 5.700227 m 1.62865,0 V 37.05515 h 4.88591 v 5.700227 z"
             id="path6028-7-5"
             style="fill:#517fab;fill-opacity:1;stroke-width:0.264583" /><text
             xml:space="preserve"
             style="font-size:29.7816px;line-height:1.25;font-family:Ubuntu;-inkscape-font-specification:Ubuntu;fill:#f9f9f9;fill-opacity:1;stroke-width:0.264583"
             x="194.92044"
             y="81.51519"
             id="text2930"
             class=""
             transform="scale(1.0000643,0.9999357)"><tspan
               sodipodi:role="line"
               id="tspan2928"
               style="text-align:end;text-anchor:end;fill:#f9f9f9;fill-opacity:1;stroke-width:0.264583"
               x="194.92044"
               y="81.51519">18.5 °C</tspan></text><g
             id="g2934"
             transform="matrix(5.9087851,0,0,5.908021,-435.36891,-274.90101)"
             style="fill:#f5f6f7;fill-opacity:1;stroke-width:0.169251"><path
               d="m 82.895702,59.93294 a 2.5347732,2.5347732 0 0 1 2.534773,2.534773 c 0,0.937866 -0.511177,1.757443 -1.267386,2.196803 v 0.760432 A 0.42246221,0.42246221 0 0 1 83.740627,65.84741 H 82.050779 A 0.42246221,0.42246221 0 0 1 81.628316,65.424948 V 64.664516 C 80.872108,64.225156 80.36093,63.405579 80.36093,62.467713 a 2.5347732,2.5347732 0 0 1 2.534772,-2.534773 m 0.844925,6.336934 v 0.42246 a 0.42246221,0.42246221 0 0 1 -0.422461,0.422463 H 82.47324 a 0.42246221,0.42246221 0 0 1 -0.422461,-0.422463 v -0.42246 h 1.689848 m 2.534774,-4.224623 h 1.267386 v 0.844924 h -1.267386 v -0.844924 m -8.026782,0 h 1.267387 v 0.844924 h -1.267387 v -0.844924 m 5.069547,-4.224622 v 1.267387 H 82.47324 v -1.267387 h 0.844926 m -3.413496,1.056154 0.899845,0.90407 -0.599895,0.595672 -0.899846,-0.895621 0.599896,-0.604121 m 5.082221,0.899846 0.89562,-0.899846 0.604121,0.604121 -0.899844,0.895621 z"
               id="path2932"
               style="fill:#f5f6f7;fill-opacity:1;stroke-width:0.0447808"
               class="" /></g><text
             xml:space="preserve"
             style="font-size:14.8887px;line-height:1.25;font-family:Ubuntu;-inkscape-font-specification:Ubuntu;fill:#f9f9f9;fill-opacity:1;stroke-width:0.264583"
             x="194.92032"
             y="102.37714"
             id="text2938"
             class=""
             transform="scale(1.0000643,0.9999357)"><tspan
               sodipodi:role="line"
               id="tspan2936"
               style="text-align:end;text-anchor:end;fill:#f9f9f9;fill-opacity:1;stroke-width:0.264583"
               x="194.92032"
               y="102.37714">40 %</tspan></text><text
             xml:space="preserve"
             style="font-size:14.8887px;line-height:1.25;font-family:Ubuntu;-inkscape-font-specification:Ubuntu;fill:#f9f9f9;fill-opacity:1;stroke-width:0.264583"
             x="195.27766"
             y="118.86803"
             id="text2942"
             class=""
             transform="scale(1.0000643,0.9999357)"><tspan
               sodipodi:role="line"
               id="tspan2940"
               style="text-align:end;text-anchor:end;fill:#f9f9f9;fill-opacity:1;stroke-width:0.264583"
               x="195.27766"
               y="118.86803">800 ppm</tspan></text><text
             xml:space="preserve"
             style="font-size:14.8887px;line-height:1.25;font-family:Ubuntu;-inkscape-font-specification:Ubuntu;fill:#f9f9f9;fill-opacity:1;stroke-width:0.264583"
             x="195.27766"
             y="37.236168"
             id="text2946"
             class=""
             transform="scale(1.0000643,0.9999357)"><tspan
               sodipodi:role="line"
               id="tspan2944"
               style="text-align:end;text-anchor:end;fill:#f9f9f9;fill-opacity:1;stroke-width:0.264583"
               x="195.27766"
               y="37.236168">Спальня</tspan></text></g></g><g
         id="g2978"
         transform="translate(207.6992,135.95719)"><rect
           style="fill:#1f588d;fill-opacity:1;stroke:#f9f9f9;stroke-width:0.529167;stroke-linecap:round;stroke-linejoin:round;stroke-dasharray:none;stroke-opacity:1;paint-order:markers fill stroke;stop-color:#000000"
           id="rect2952"
           width="197.11392"
           height="126.29002"
           x="11.863595"
           y="11.969939"
           rx="2.1166666"
           ry="2.1166666" /><g
           id="g2976"
           transform="translate(-0.16632463,0.84935695)"><path
             d="m 34.036551,27.042955 c -0.881388,0 -1.586518,0.704954 -1.586518,1.586153 0,0.881194 0.70513,1.586151 1.586518,1.586151 0.881381,0 1.58651,-0.704957 1.58651,-1.586151 0,-0.881199 -0.705129,-1.586153 -1.58651,-1.586153 m 4.997524,0.704954 a 6.4606375,6.4591644 0 0 0 6.46062,6.459165 v -1.17199 a 5.2883799,5.2871741 0 0 1 -5.288381,-5.287175 h -1.172239 m 2.344513,0 c 0,2.273486 1.842122,4.115184 4.116107,4.115184 v -1.180799 c -1.621757,0 -2.935044,-1.312982 -2.935044,-2.934385 h -1.181063 m 2.353337,0 a 1.7627933,1.7623914 0 0 0 1.76277,1.762393 v -1.762393 h -1.76277 m -11.528671,2.670025 c -0.149908,0 -0.299811,0.0263 -0.440688,0.0705 l -4.777202,1.489218 v 4.58222 h 1.586517 v -3.233988 l 1.859743,-0.581589 -3.44626,13.508729 h 1.586517 l 2.529626,-7.146498 2.053656,2.740521 v 4.405977 H 34.74168 V 40.60456 l -2.194705,-4.000628 0.643433,-2.529031 0.951909,1.603774 h 4.301227 v -1.586149 h -3.190649 l -1.762806,-2.93438 C 33.225585,30.717547 32.749715,30.41794 32.203254,30.41794 Z"
             id="path2954"
             style="fill:#517fab;fill-opacity:1;stroke-width:0.264583" /><path
             d="m 100.73302,38.43564 -2.136013,0.568382 -1.83349,-1.035919 v -2.640218 l 1.83349,-1.035919 2.136013,0.568378 0.4767,-1.76931 -1.622633,-0.430872 0.421703,-1.622632 -1.769313,-0.476705 -0.56838,2.136009 -1.83349,1.035919 -2.24601,-1.32011 v -2.071837 l 1.56762,-1.567631 -1.30177,-1.292612 -1.1826,1.182603 -1.1826,-1.182603 -1.30177,1.292612 1.56763,1.567631 v 2.071837 l -2.29186,1.32011 -1.83348,-1.035919 -0.53171,-2.136009 -1.76015,0.476705 0.43087,1.622632 -1.62263,0.430872 0.4767,1.76931 2.13601,-0.568378 1.83349,1.035919 v 2.649386 l -1.83349,1.035919 -2.13601,-0.568382 -0.4767,1.769314 1.62263,0.430868 -0.43087,1.613469 1.76932,0.476705 0.56837,-2.13601 1.83349,-1.035919 2.24602,1.32011 v 2.071837 l -1.56763,1.567631 1.30177,1.292606 1.1826,-1.182597 1.1826,1.182597 1.29261,-1.292606 -1.55846,-1.567631 v -2.071837 l 2.29185,-1.329278 1.83349,1.035919 0.56838,2.13601 1.723473,-0.467537 -0.430873,-1.622637 1.622643,-0.430868 -0.46754,-1.769314 m -10.350023,-3.107755 2.29185,-1.329278 2.29186,1.329278 v 2.640218 l -2.29186,1.329278 -2.29186,-1.329278 z"
             id="path5480-3"
             style="fill:#517fab;fill-opacity:1;stroke-width:0.264583" /><path
             d="M 71.937162,42.755378 V 28.097648 H 57.279431 v 14.65773 h -1.628616 v 2.442955 H 73.565812 V 42.755378 M 70.308544,29.726285 v 5.700228 h -4.88591 v -5.700228 m -6.514556,0 h 4.885909 v 5.700228 h -4.885909 m 0,7.328865 v -5.700227 h 4.885909 v 5.700227 m 1.628647,0 v -5.700227 h 4.88591 v 5.700227 z"
             id="path6028-7"
             style="fill:#517fab;fill-opacity:1;stroke-width:0.264583" /><text
             xml:space="preserve"
             style="font-size:29.7816px;line-height:1.25;font-family:Ubuntu;-inkscape-font-specification:Ubuntu;fill:#f9f9f9;fill-opacity:1;stroke-width:0.264583"
             x="194.92044"
             y="81.51519"
             id="text2958"
             class=""
             transform="scale(1.0000643,0.9999357)"><tspan
               sodipodi:role="line"
               id="tspan2956"
               style="text-align:end;text-anchor:end;fill:#f9f9f9;fill-opacity:1;stroke-width:0.264583"
               x="194.92044"
               y="81.51519">18.5 °C</tspan></text><g
             id="g2962"
             transform="matrix(5.9087851,0,0,5.908021,-435.36891,-274.90101)"
             style="fill:#f5f6f7;fill-opacity:1;stroke-width:0.169251"><path
               d="m 82.895702,59.93294 a 2.5347732,2.5347732 0 0 1 2.534773,2.534773 c 0,0.937866 -0.511177,1.757443 -1.267386,2.196803 v 0.760432 A 0.42246221,0.42246221 0 0 1 83.740627,65.84741 H 82.050779 A 0.42246221,0.42246221 0 0 1 81.628316,65.424948 V 64.664516 C 80.872108,64.225156 80.36093,63.405579 80.36093,62.467713 a 2.5347732,2.5347732 0 0 1 2.534772,-2.534773 m 0.844925,6.336934 v 0.42246 a 0.42246221,0.42246221 0 0 1 -0.422461,0.422463 H 82.47324 a 0.42246221,0.42246221 0 0 1 -0.422461,-0.422463 v -0.42246 h 1.689848 m 2.534774,-4.224623 h 1.267386 v 0.844924 h -1.267386 v -0.844924 m -8.026782,0 h 1.267387 v 0.844924 h -1.267387 v -0.844924 m 5.069547,-4.224622 v 1.267387 H 82.47324 v -1.267387 h 0.844926 m -3.413496,1.056154 0.899845,0.90407 -0.599895,0.595672 -0.899846,-0.895621 0.599896,-0.604121 m 5.082221,0.899846 0.89562,-0.899846 0.604121,0.604121 -0.899844,0.895621 z"
               id="path2960"
               style="fill:#f5f6f7;fill-opacity:1;stroke-width:0.0447808"
               class="" /></g><text
             xml:space="preserve"
             style="font-size:14.8887px;line-height:1.25;font-family:Ubuntu;-inkscape-font-specification:Ubuntu;fill:#f9f9f9;fill-opacity:1;stroke-width:0.264583"
             x="194.92032"
             y="102.37714"
             id="text2966"
             class=""
             transform="scale(1.0000643,0.9999357)"><tspan
               sodipodi:role="line"
               id="tspan2964"
               style="text-align:end;text-anchor:end;fill:#f9f9f9;fill-opacity:1;stroke-width:0.264583"
               x="194.92032"
               y="102.37714">40 %</tspan></text><text
             xml:space="preserve"
             style="font-size:14.8887px;line-height:1.25;font-family:Ubuntu;-inkscape-font-specification:Ubuntu;fill:#f9f9f9;fill-opacity:1;stroke-width:0.264583"
             x="195.27766"
             y="118.86803"
             id="text2970"
             class=""
             transform="scale(1.0000643,0.9999357)"><tspan
               sodipodi:role="line"
               id="tspan2968"
               style="text-align:end;text-anchor:end;fill:#f9f9f9;fill-opacity:1;stroke-width:0.264583"
               x="195.27766"
               y="118.86803">800 ppm</tspan></text><text
             xml:space="preserve"
             style="font-size:14.8887px;line-height:1.25;font-family:Ubuntu;-inkscape-font-specification:Ubuntu;fill:#f9f9f9;fill-opacity:1;stroke-width:0.264583"
             x="195.27766"
             y="37.236168"
             id="text2974"
             class=""
             transform="scale(1.0000643,0.9999357)"><tspan
               sodipodi:role="line"
               id="tspan2972"
               style="text-align:end;text-anchor:end;fill:#f9f9f9;fill-opacity:1;stroke-width:0.264583"
               x="195.27766"
               y="37.236168">Зал</tspan></text></g></g><rect
         style="fill:#1f588d;fill-opacity:1;stroke:#f9f9f9;stroke-width:0.529167;stroke-linecap:round;stroke-linejoin:round;stroke-dasharray:none;stroke-opacity:1;paint-order:markers fill stroke;stop-color:#000000"
         id="rect2980"
         width="197.11392"
         height="85.890388"
         x="427.26199"
         y="147.92712"
         rx="2.1166666"
         ry="2.1166666" /><g
         id="g3366"
         transform="translate(0,-21.596404)"><text
           xml:space="preserve"
           style="font-size:14.8887px;line-height:1.25;font-family:Ubuntu;-inkscape-font-specification:Ubuntu;fill:#f9f9f9;fill-opacity:1;stroke-width:0.264583"
           x="610.12567"
           y="196.56567"
           id="text2994"
           class=""
           transform="scale(1.0000643,0.9999357)"><tspan
             sodipodi:role="line"
             id="tspan2992"
             style="text-align:end;text-anchor:end;fill:#f9f9f9;fill-opacity:1;stroke-width:0.264583"
             x="610.12567"
             y="196.56567">12345678900</tspan></text><text
           xml:space="preserve"
           style="font-size:14.8887px;line-height:1.25;font-family:Ubuntu;-inkscape-font-specification:Ubuntu;fill:#f9f9f9;fill-opacity:1;stroke-width:0.264583"
           x="440.95898"
           y="195.50909"
           id="text3130"
           class=""
           transform="scale(0.9999503,1.0000497)"><tspan
             sodipodi:role="line"
             id="tspan3128"
             style="font-size:14.8887px;fill:#f9f9f9;fill-opacity:1;stroke-width:0.264583"
             x="440.95898"
             y="195.50909">Вода</tspan></text></g><g
         id="g3372"
         transform="translate(0,-25.472687)"><text
           xml:space="preserve"
           style="font-size:14.8887px;line-height:1.25;font-family:Ubuntu;-inkscape-font-specification:Ubuntu;fill:#f9f9f9;fill-opacity:1;stroke-width:0.264583"
           x="441.86719"
           y="221.64468"
           id="text3154"
           class=""
           transform="scale(0.9999503,1.0000497)"><tspan
             sodipodi:role="line"
             id="tspan3152"
             style="font-size:14.8887px;fill:#f9f9f9;fill-opacity:1;stroke-width:0.264583"
             x="441.86719"
             y="221.64468">Электр.</tspan></text><text
           xml:space="preserve"
           style="font-size:14.8887px;line-height:1.25;font-family:Ubuntu;-inkscape-font-specification:Ubuntu;fill:#f9f9f9;fill-opacity:1;stroke-width:0.264583"
           x="610.12567"
           y="222.93504"
           id="text3162"
           class=""
           transform="scale(1.0000643,0.9999357)"><tspan
             sodipodi:role="line"
             id="tspan3160"
             style="text-align:end;text-anchor:end;fill:#f9f9f9;fill-opacity:1;stroke-width:0.264583"
             x="610.12567"
             y="222.93504">12345678900</tspan></text></g><g
         id="g772"><path
           id="path397"
           style="fill:#1f588d;fill-opacity:0.0506599;stroke:#f9f9f9;stroke-width:0.529167;stroke-linecap:round;stroke-linejoin:round;paint-order:markers fill stroke;stop-color:#000000"
           d="m 429.37866,243.71089 100.29369,0 c 1.17264,0 2.11667,0.94404 2.11667,2.11667 v 26.88381 c 0,1.17263 -0.94403,2.11666 -2.11667,2.11666 l -100.29369,0 c -1.17263,0 -2.11667,-0.94403 -2.11667,-2.11666 v -26.88381 c 0,-1.17263 0.94404,-2.11667 2.11667,-2.11667 z"
           sodipodi:nodetypes="sssssssss" /><text
           xml:space="preserve"
           style="font-size:14.8887px;line-height:1.25;font-family:Ubuntu;-inkscape-font-specification:Ubuntu;fill:#f9f9f9;fill-opacity:1;stroke-width:0.264583"
           x="440.00497"
           y="264.42294"
           id="text612"
           class=""
           transform="scale(0.9999503,1.0000497)"><tspan
             sodipodi:role="line"
             id="tspan610"
             style="font-size:14.8887px;fill:#f9f9f9;fill-opacity:1;stroke-width:0.264583"
             x="440.00497"
             y="264.42294">Отопление</tspan></text></g><g
         id="g3382"
         transform="translate(0,-28.689212)"><text
           xml:space="preserve"
           style="font-size:14.8887px;line-height:1.25;font-family:Ubuntu;-inkscape-font-specification:Ubuntu;fill:#f9f9f9;fill-opacity:1;stroke-width:0.264583"
           x="440.95898"
           y="247.6187"
           id="text3158"
           class=""
           transform="scale(0.9999503,1.0000497)"><tspan
             sodipodi:role="line"
             id="tspan3156"
             style="font-size:14.8887px;fill:#f9f9f9;fill-opacity:1;stroke-width:0.264583"
             x="440.95898"
             y="247.6187">Газ</tspan></text><text
           xml:space="preserve"
           style="font-size:14.8887px;line-height:1.25;font-family:Ubuntu;-inkscape-font-specification:Ubuntu;fill:#f9f9f9;fill-opacity:1;stroke-width:0.264583"
           x="610.12567"
           y="247.74313"
           id="text3166"
           class=""
           transform="scale(1.0000643,0.9999357)"><tspan
             sodipodi:role="line"
             id="tspan3164"
             style="text-align:end;text-anchor:end;fill:#f9f9f9;fill-opacity:1;stroke-width:0.264583"
             x="610.12567"
             y="247.74313">12345678900</tspan></text></g><g
         id="g767"><path
           id="rect4970"
           style="fill:#1f588d;fill-opacity:0.0528239;stroke:#f9f9f9;stroke-width:0.529167;stroke-linecap:round;stroke-linejoin:round;paint-order:markers fill stroke;stop-color:#000000"
           d="m 590.98337,243.71089 h 31.27588 c 1.17263,0 2.11667,0.94404 2.11667,2.11667 v 26.88381 c 0,1.17263 -0.94404,2.11666 -2.11667,2.11666 h -31.27588 c -1.17264,0 -2.11667,-0.94403 -2.11667,-2.11666 v -26.88381 c 0,-1.17263 0.94403,-2.11667 2.11667,-2.11667 z" /><path
           d="m 607.57079,254.93972 c -1.05142,0 -1.91059,-0.8705 -1.91059,-1.92186 a 1.9105729,1.9105729 0 0 1 1.91059,-1.9106 c 1.06265,0 1.92188,0.85918 1.92188,1.9106 0,1.05136 -0.85923,1.92186 -1.92188,1.92186 m -3.43679,13.29488 -6.70397,-1.33403 0.38455,-1.92186 4.69163,0.9609 1.52621,-7.75534 -1.71839,0.67832 v 3.23329 h -1.91056 v -4.47684 l 4.97426,-2.11406 0.75744,-0.0906 c 0.6783,0 1.24361,0.38456 1.61666,0.96096 l 0.97223,1.52621 c 0.76878,1.36789 2.29494,2.29492 4.11508,2.29492 v 1.89927 c -2.10274,0 -4.02462,-0.93831 -5.26818,-2.37406 l -0.56529,2.87151 2.00104,1.91054 v 7.20141 h -1.91058 v -5.76565 l -2.01234,-1.91056 -0.94962,4.20552 m 12.09651,3.47069 h -2.26101 v -22.61036 h -14.69674 v 14.82109 l -2.26101,-0.47481 v -16.60727 h 19.21876 v 24.87135 m -16.95775,0 h -2.26101 v -3.64027 l 2.26101,0.47484 z"
           id="path4211"
           style="fill:#f5f6f7;fill-opacity:1;stroke-width:0.264583" /></g><g
         id="g763"><path
           id="rect4571"
           style="fill:#1f588d;fill-opacity:0.0506599;stroke:#f9f9f9;stroke-width:0.529167;stroke-linecap:round;stroke-linejoin:round;paint-order:markers fill stroke;stop-color:#000000"
           d="m 544.72067,243.71089 h 31.27588 c 1.17264,0 2.11667,0.94404 2.11667,2.11667 v 26.88381 c 0,1.17263 -0.94403,2.11666 -2.11667,2.11666 h -31.27588 c -1.17263,0 -2.11667,-0.94403 -2.11667,-2.11666 v -26.88381 c 0,-1.17263 0.94404,-2.11667 2.11667,-2.11667 z" /><path
           d="m 571.29004,271.70485 -3.25698,-3.23327 c -0.0358,0 -0.0712,0 -0.10657,0 h -1.38567 c 0.13025,-0.37913 0.20142,-0.78164 0.20142,-1.18433 v -0.13026 l -2.66482,-2.66477 c -0.21306,0.26053 -0.52108,0.4266 -0.88822,0.4266 h -4.73743 c -0.65139,0 -1.18434,-0.53295 -1.18434,-1.18434 v -2.36872 c -1.89494,-1.42122 -2.67663,-3.74253 -2.22658,-5.92171 l -1.91863,-1.89499 c -0.37914,0.98304 -0.59216,2.02525 -0.59216,3.07932 0,2.16737 0.85272,4.23998 2.36866,5.77964 v 2.5108 h -2.36866 c -0.65139,0 -1.18438,-0.53295 -1.18438,-1.18434 v -1.83577 c -1.35014,-0.78165 -2.22655,-2.16732 -2.36867,-3.71885 -0.17771,-2.41607 1.48045,-4.51235 3.78989,-4.99794 l -4.84397,-4.84397 1.51594,-1.50416 23.35539,23.3672 -1.50412,1.50413 m -6.91662,-19.81411 c -2.10814,-1.57521 -4.90317,-1.51599 -6.95209,-0.0828 l 8.2312,8.23125 c 1.83572,-2.61742 1.29096,-6.21782 -1.27911,-8.1483 m 5.67303,12.54222 c 0.14189,-0.20143 0.24888,-0.43824 0.24888,-0.69875 v -1.83577 c 2.26208,-1.31459 3.04377,-4.20444 1.72914,-6.45466 -0.7817,-1.36204 -2.16737,-2.23845 -3.71886,-2.36871 0.53295,1.1133 0.80534,2.32131 0.80534,3.55305 0,1.8594 -0.62772,3.65962 -1.77651,5.10452 l 2.71213,2.70032 m -11.59476,2.8543 c 0,0.65138 0.53298,1.18432 1.18437,1.18432 h 2.36867 c 0.65139,0 1.18439,-0.53294 1.18439,-1.18432 v -1.18434 h -4.73743 v 1.18434 m -3.55306,-1.18434 h -2.36866 v 1.18434 c 0,0.65138 0.53295,1.18432 1.18434,1.18432 h 1.38567 c -0.13025,-0.37913 -0.20143,-0.78164 -0.20143,-1.18432 z"
           id="path4391"
           style="fill:#f5f6f7;fill-opacity:1;stroke-width:0.264583" /></g></g></g></svg>
