<?xml version="1.0" encoding="UTF-8" standalone="no"?>
<svg
   width="480"
   height="480"
   viewBox="0 0 127 127"
   version="1.1"
   id="svg5"
   inkscape:version="1.2.2 (b0a8486541, 2022-12-01)"
   sodipodi:docname="4in-panel-main.svg"
   xml:space="preserve"
   style=""
   xmlns:inkscape="http://www.inkscape.org/namespaces/inkscape"
   xmlns:sodipodi="http://sodipodi.sourceforge.net/DTD/sodipodi-0.dtd"
   xmlns:xlink="http://www.w3.org/1999/xlink"
   xmlns="http://www.w3.org/2000/svg"
   xmlns:svg="http://www.w3.org/2000/svg"><defs
     id="defs1266"><rect
       x="-12.409759"
       y="139.69166"
       width="315.66768"
       height="33.974465"
       id="rect17970" /><style
       type="text/css"
       id="style1264" /></defs><sodipodi:namedview
     id="namedview7"
     pagecolor="#ffffff"
     bordercolor="#666666"
     borderopacity="1.0"
     inkscape:showpageshadow="2"
     inkscape:pageopacity="0.0"
     inkscape:pagecheckerboard="0"
     inkscape:deskcolor="#d1d1d1"
     inkscape:document-units="px"
     showgrid="true"
     inkscape:zoom="1.4142136"
     inkscape:cx="300.87393"
     inkscape:cy="278.95362"
     inkscape:window-width="2560"
     inkscape:window-height="1379"
     inkscape:window-x="1920"
     inkscape:window-y="0"
     inkscape:window-maximized="1"
     inkscape:current-layer="layer1"
     showguides="false"
     inkscape:lockguides="true"><inkscape:grid
       type="xygrid"
       id="grid3900"
       snapvisiblegridlinesonly="true"
       spacingx="5.2916667"
       spacingy="2.1166667" /><sodipodi:guide
       position="10.583333,92.604167"
       orientation="1,0"
       id="guide443"
       inkscape:locked="true" /><sodipodi:guide
       position="25.4,118.53333"
       orientation="0,-1"
       id="guide445"
       inkscape:locked="true" /><sodipodi:guide
       position="116.81354,89.826042"
       orientation="1,0"
       id="guide447"
       inkscape:locked="true" /><sodipodi:guide
       position="82.417708,6.4822916"
       orientation="0,-1"
       id="guide449"
       inkscape:locked="true" /></sodipodi:namedview><defs
     id="defs2" /><g
     inkscape:label="Слой 1"
     inkscape:groupmode="layer"
     id="layer1"><rect
       style="fill:#1a1a1a;stroke-width:0.529167;stroke-linecap:round;stroke-linejoin:round;paint-order:markers fill stroke;stop-color:#000000"
       id="rect384"
       width="127"
       height="127"
       x="0"
       y="-1.1546319e-14" /><title
       id="title21947">alpha-v</title><title
       id="title20348">alpha-c</title><title
       id="title17974">alpha-o</title><title
       id="title16689">molecule-co2</title><title
       id="title6937">lightbulb-on</title><path
       d="m 44.134685,-20.16662 c -0.94582,0 -1.71967,0.772551 -1.71967,1.716781 0,0.944226 0.77385,1.716779 1.71967,1.716779 0.0688,0 0.12038,0 0.18916,-0.01715 l 0.39553,-1.133078 -0.10318,-0.103009 c 0.12038,-0.12017 0.20636,-0.291854 0.20636,-0.480693 0,-0.120178 -0.0344,-0.240353 -0.10318,-0.34336 l 0.37833,-0.377709 c 0.15477,0.223181 0.24075,0.46353 0.24075,0.738215 h 0.17197 c 0.0516,0 0.10318,0.01715 0.13757,0.03434 0,0 0.0172,0 0.0172,0.01719 0.0688,0.03435 0.13757,0.103006 0.17197,0.188844 0.0172,-0.08584 0.0172,-0.154507 0.0172,-0.240349 0,-0.944228 -0.77385,-1.716778 -1.71967,-1.716778 m 0.34393,1.133073 c -0.10318,-0.06867 -0.22355,-0.103006 -0.34393,-0.103006 -0.37833,0 -0.68787,0.309021 -0.68787,0.686711 0,0.188848 0.0688,0.360527 0.20636,0.480698 l -0.36113,0.360526 c -0.22356,-0.206012 -0.36113,-0.515038 -0.36113,-0.841224 0,-0.669542 0.5331,-1.201744 1.20377,-1.201744 0.27515,0 0.5159,0.08584 0.72226,0.240349 l -0.37833,0.37769 m 1.03181,0.927064 h -0.34394 l -0.55029,1.5451 h 0.32674 l 0.12037,-0.343354 h 0.5503 l 0.12038,0.343354 h 0.32673 l -0.55029,-1.5451 m -0.37833,0.978561 0.20636,-0.635207 0.20636,0.635207 z"
       id="path4494"
       style="fill:#cccccc;fill-opacity:1;stroke-width:0.213829" /><title
       id="title501">water-percent</title><title
       id="title1462">thermostat-box</title><title
       id="title1965">thermostat-cog</title><title
       id="title2115">thermometer</title><title
       id="title2196">home-thermometer-outline</title><text
       xml:space="preserve"
       transform="scale(0.26458333)"
       id="text17968"
       style="font-size:22px;line-height:1.25;font-family:Ubuntu;-inkscape-font-specification:Ubuntu;white-space:pre;shape-inside:url(#rect17970);display:inline" /><g
       id="g50077"
       transform="translate(0,-17.830656)"><path
         style="fill:none;stroke:#79838f;stroke-width:0.264583px;stroke-linecap:butt;stroke-linejoin:miter;stroke-opacity:1"
         d="M 116.43051,70.574558 H 10.642045"
         id="path6791"
         sodipodi:nodetypes="cc" /><text
         xml:space="preserve"
         style="font-size:5.54723px;line-height:1.25;font-family:Ubuntu;-inkscape-font-specification:Ubuntu;fill:#7d8085;fill-opacity:1;stroke-width:0.264582"
         x="42.915184"
         y="28.612778"
         id="text519"
         transform="scale(0.99986322,1.0001368)"><tspan
           sodipodi:role="line"
           id="tspan517"
           style="fill:#7d8085;fill-opacity:1;stroke-width:0.264582"
           x="42.915184"
           y="28.612778">Кухня</tspan></text><g
         id="g11452"
         transform="matrix(1.578513,0,0,1.5789449,-0.55225615,-65.775997)"
         style="stroke-width:0.633421"><text
           xml:space="preserve"
           style="font-size:10.5833px;line-height:1.25;font-family:Ubuntu;-inkscape-font-specification:Ubuntu;fill:#cccccc;fill-opacity:1;stroke-width:0.167593"
           x="5.1408281"
           y="69.424477"
           id="text10087"><tspan
             sodipodi:role="line"
             id="tspan10085"
             style="font-size:10.5833px;fill:#cccccc;fill-opacity:1;stroke-width:0.167593"
             x="5.1408281"
             y="69.424477">26.8</tspan></text><text
           xml:space="preserve"
           style="font-size:4.23333px;line-height:1.25;font-family:Ubuntu;-inkscape-font-specification:Ubuntu;fill:#cccccc;fill-opacity:1;stroke-width:0.167593"
           x="26.075596"
           y="65.158752"
           id="text11212"><tspan
             sodipodi:role="line"
             id="tspan11210"
             style="font-size:4.23333px;fill:#cccccc;fill-opacity:1;stroke-width:0.167593"
             x="26.075596"
             y="65.158752">°С</tspan></text></g><g
         id="g38697"
         transform="translate(0,17.013544)"><g
           id="g23434"
           transform="matrix(1.0842982,0,0,1.0845948,0.24506525,-48.729233)"
           style="fill:#7d8085;fill-opacity:1;stroke-width:0.922131"><path
             d="m 8.9265416,73.943213 c 0,0 -1.3151006,1.479488 -1.3151006,2.356221 0,0.72769 0.5896046,1.315101 1.3151006,1.315101 a 1.3151008,1.3151008 0 0 0 1.3151004,-1.315101 c 0,-0.876733 -1.3151004,-2.356221 -1.3151004,-2.356221 m 0.541384,1.472912 0.232335,0.232335 -1.315101,1.3151 -0.232335,-0.232334 m 0.280555,-1.308525 a 0.27397934,0.27397934 0 0 1 0.273979,0.273979 0.27397934,0.27397934 0 0 1 -0.273979,0.273979 0.27397934,0.27397934 0 0 1 -0.273979,-0.273979 0.27397934,0.27397934 0 0 1 0.273979,-0.273979 m 0.986325,0.986325 a 0.27397934,0.27397934 0 0 1 0.27398,0.273979 0.27397934,0.27397934 0 0 1 -0.27398,0.27398 0.27397934,0.27397934 0 0 1 -0.273979,-0.27398 0.27397934,0.27397934 0 0 1 0.273979,-0.273979 z"
             id="path13127"
             style="fill:#7d8085;fill-opacity:1;stroke-width:0.243979" /><text
             xml:space="preserve"
             style="font-size:4.82203px;line-height:1.25;font-family:Ubuntu;-inkscape-font-specification:Ubuntu;fill:#7d8085;fill-opacity:1;stroke-width:0.243979"
             x="15.069487"
             y="77.449707"
             id="text13131"><tspan
               sodipodi:role="line"
               id="tspan13129"
               style="fill:#7d8085;fill-opacity:1;stroke-width:0.243979"
               x="15.069487"
               y="77.449707">56 %</tspan></text></g><g
           id="g23421"
           transform="matrix(1.0842982,0,0,1.0845948,0.24506525,-47.716191)"
           style="fill:#7d8085;fill-opacity:1;stroke-width:0.922131"><path
             d="M 8.1406076,79.270709 A 0.52916667,0.52916667 0 0 0 7.611441,79.799876 v 1.5875 a 0.52916667,0.52916667 0 0 0 0.5291666,0.529166 h 0.79375 v -0.529166 h -0.79375 v -1.5875 h 0.79375 v -0.529167 h -0.79375 m 1.5875,0 a 0.52916667,0.52916667 0 0 0 -0.529167,0.529167 v 1.5875 a 0.52916667,0.52916667 0 0 0 0.529167,0.529166 h 0.5291674 a 0.52916667,0.52916667 0 0 0 0.529166,-0.529166 v -1.5875 A 0.52916667,0.52916667 0 0 0 10.257275,79.270709 H 9.7281076 m 0,0.529167 h 0.5291674 v 1.5875 H 9.7281076 v -1.5875 m 1.3229174,0.396875 v 0.396875 h 0.79375 v 0.396875 H 11.4479 a 0.396875,0.396875 0 0 0 -0.396875,0.396875 v 0.79375 H 12.24165 V 81.784251 H 11.4479 v -0.396875 h 0.396875 a 0.396875,0.396875 0 0 0 0.396875,-0.396875 v -0.396875 a 0.396875,0.396875 0 0 0 -0.396875,-0.396875 z"
             id="path16691"
             style="fill:#7d8085;fill-opacity:1;stroke-width:0.243979" /><text
             xml:space="preserve"
             style="font-size:4.82203px;line-height:1.25;font-family:Ubuntu;-inkscape-font-specification:Ubuntu;fill:#7d8085;fill-opacity:1;stroke-width:0.243979"
             x="14.934471"
             y="82.399162"
             id="text17879"><tspan
               sodipodi:role="line"
               id="tspan17877"
               style="fill:#7d8085;fill-opacity:1;stroke-width:0.243979"
               x="14.934471"
               y="82.399162">1250</tspan></text></g><g
           id="g23429"
           transform="matrix(1.0842982,0,0,1.0845948,0.24506525,-46.146523)"
           style="fill:#7d8085;fill-opacity:1;stroke-width:0.922131"><g
             id="g23412"
             transform="translate(-42.707994,11.262884)"
             style="fill:#7d8085;fill-opacity:1;stroke-width:0.922131"><path
               d="m 50.319435,72.636281 0.529167,2.645833 h 0.529166 l 0.529167,-2.645833 h -0.529167 l -0.264583,1.322917 -0.264583,-1.322917 z"
               id="path21949"
               style="fill:#7d8085;fill-opacity:1;stroke-width:0.243979" /><path
               d="m 54.439885,72.636281 a 0.52916667,0.52916667 0 0 0 -0.529167,0.529167 v 1.5875 a 0.52916667,0.52916667 0 0 0 0.529167,0.529166 h 0.529166 a 0.52916667,0.52916667 0 0 0 0.529167,-0.529166 v -0.264584 h -0.529167 v 0.264584 h -0.529166 v -1.5875 h 0.529166 v 0.264583 h 0.529167 v -0.264583 a 0.52916667,0.52916667 0 0 0 -0.529167,-0.529167 z"
               id="path20350"
               style="fill:#7d8085;fill-opacity:1;stroke-width:0.243979" /><path
               d="m 52.576792,72.636279 a 0.52916667,0.52916667 0 0 0 -0.529166,0.529167 v 1.587501 a 0.52916667,0.52916667 0 0 0 0.529166,0.529167 h 0.529167 a 0.52916667,0.52916667 0 0 0 0.529167,-0.529167 v -1.587501 a 0.52916667,0.52916667 0 0 0 -0.529167,-0.529167 h -0.529167 m 0,0.529167 h 0.529167 v 1.587501 h -0.529167 z"
               id="path17976"
               style="fill:#7d8085;fill-opacity:1;stroke-width:0.243979" /></g><text
             xml:space="preserve"
             style="font-size:4.82203px;line-height:1.25;font-family:Ubuntu;-inkscape-font-specification:Ubuntu;fill:#7d8085;fill-opacity:1;stroke-width:0.243979"
             x="14.934471"
             y="86.895325"
             id="text23416"><tspan
               sodipodi:role="line"
               id="tspan23414"
               style="fill:#7d8085;fill-opacity:1;stroke-width:0.243979"
               x="14.934471"
               y="86.895325">150</tspan></text></g></g><g
         id="g6955"
         transform="matrix(0.66666668,0,0,0.66666668,-10.383149,21.995237)"
         style="stroke-width:1.5"><path
           id="path6949"
           style="display:inline;fill:#373737;fill-opacity:1;stroke:none;stroke-width:0.396875;stroke-dasharray:none;stroke-opacity:1;paint-order:markers fill stroke;stop-color:#000000"
           d="m 80.15686,39.562962 h 25.4 v 25.399999 h -25.4 z" /><path
           d="m 108.32434,92.670177 a 2.7450438,2.7450438 0 0 1 2.74504,2.745043 c 0,1.015666 -0.55357,1.903231 -1.37252,2.379039 v 0.823515 a 0.4575073,0.4575073 0 0 1 -0.4575,0.457505 h -1.83004 a 0.4575073,0.4575073 0 0 1 -0.4575,-0.457505 v -0.823515 c -0.81893,-0.475808 -1.37252,-1.363373 -1.37252,-2.379039 a 2.7450438,2.7450438 0 0 1 2.74504,-2.745043 m 0.91502,6.862607 v 0.457511 a 0.4575073,0.4575073 0 0 1 -0.45752,0.457505 h -0.915 a 0.4575073,0.4575073 0 0 1 -0.45752,-0.457505 v -0.457511 h 1.83004 m 2.74505,-4.575071 h 1.37252 v 0.915015 h -1.37252 v -0.915015 m -8.69266,0 h 1.37252 v 0.915015 h -1.37252 v -0.915015 m 5.49009,-4.575072 v 1.372522 h -0.915 v -1.372522 h 0.915 m -3.69665,1.143767 0.97448,0.979065 -0.64964,0.645087 -0.9745,-0.969916 0.64966,-0.654236 m 5.50382,0.974492 0.96991,-0.974492 0.65423,0.654236 -0.97448,0.969916 z"
           id="path6939"
           style="fill:#cccccc;fill-opacity:1;stroke-width:0.264583"
           transform="matrix(1.5,0,0,1.5,-69.373491,-91.219524)" /><path
           id="path6953"
           style="display:inline;fill:#e6e6e6;fill-opacity:0;stroke:#79838f;stroke-width:0.396874;stroke-opacity:1;paint-order:markers fill stroke;stop-color:#000000"
           d="m 80.15686,39.562962 h 25.4 v 25.399999 h -25.4 z"
           class="" /></g><text
         xml:space="preserve"
         style="font-size:5.54723px;line-height:1.25;font-family:Ubuntu;-inkscape-font-specification:Ubuntu;fill:#7d8085;fill-opacity:1;stroke-width:0.264582"
         x="68.969963"
         y="28.53661"
         id="text29618"
         transform="scale(0.99986322,1.0001368)"><tspan
           sodipodi:role="line"
           id="tspan29616"
           style="fill:#7d8085;fill-opacity:1;stroke-width:0.264582"
           x="68.969963"
           y="28.53661">Санузел</tspan></text><g
         id="g29630"
         transform="matrix(1.578513,0,0,1.5789449,60.231832,-65.852175)"
         style="stroke-width:0.633421"><text
           xml:space="preserve"
           style="font-size:10.5833px;line-height:1.25;font-family:Ubuntu;-inkscape-font-specification:Ubuntu;fill:#cccccc;fill-opacity:1;stroke-width:0.167593"
           x="5.1408281"
           y="69.424477"
           id="text29624"><tspan
             sodipodi:role="line"
             id="tspan29622"
             style="font-size:10.5833px;fill:#cccccc;fill-opacity:1;stroke-width:0.167593"
             x="5.1408281"
             y="69.424477">26.8</tspan></text><text
           xml:space="preserve"
           style="font-size:4.23333px;line-height:1.25;font-family:Ubuntu;-inkscape-font-specification:Ubuntu;fill:#cccccc;fill-opacity:1;stroke-width:0.167593"
           x="26.075596"
           y="65.158752"
           id="text29628"><tspan
             sodipodi:role="line"
             id="tspan29626"
             style="font-size:4.23333px;fill:#cccccc;fill-opacity:1;stroke-width:0.167593"
             x="26.075596"
             y="65.158752">°С</tspan></text></g><g
         id="g38714"
         transform="translate(0,17.013544)"><g
           id="g29638"
           transform="matrix(1.0842982,0,0,1.0845948,61.029153,-48.805411)"
           style="fill:#7d8085;fill-opacity:1;stroke-width:0.922131"><path
             d="m 8.9265416,73.943213 c 0,0 -1.3151006,1.479488 -1.3151006,2.356221 0,0.72769 0.5896046,1.315101 1.3151006,1.315101 a 1.3151008,1.3151008 0 0 0 1.3151004,-1.315101 c 0,-0.876733 -1.3151004,-2.356221 -1.3151004,-2.356221 m 0.541384,1.472912 0.232335,0.232335 -1.315101,1.3151 -0.232335,-0.232334 m 0.280555,-1.308525 a 0.27397934,0.27397934 0 0 1 0.273979,0.273979 0.27397934,0.27397934 0 0 1 -0.273979,0.273979 0.27397934,0.27397934 0 0 1 -0.273979,-0.273979 0.27397934,0.27397934 0 0 1 0.273979,-0.273979 m 0.986325,0.986325 a 0.27397934,0.27397934 0 0 1 0.27398,0.273979 0.27397934,0.27397934 0 0 1 -0.27398,0.27398 0.27397934,0.27397934 0 0 1 -0.273979,-0.27398 0.27397934,0.27397934 0 0 1 0.273979,-0.273979 z"
             id="path29632"
             style="fill:#7d8085;fill-opacity:1;stroke-width:0.243979" /><text
             xml:space="preserve"
             style="font-size:4.82203px;line-height:1.25;font-family:Ubuntu;-inkscape-font-specification:Ubuntu;fill:#7d8085;fill-opacity:1;stroke-width:0.243979"
             x="15.069487"
             y="77.449707"
             id="text29636"><tspan
               sodipodi:role="line"
               id="tspan29634"
               style="fill:#7d8085;fill-opacity:1;stroke-width:0.243979"
               x="15.069487"
               y="77.449707">56 %</tspan></text></g><g
           id="g29646"
           transform="matrix(1.0842982,0,0,1.0845948,61.029153,-47.792369)"
           style="fill:#7d8085;fill-opacity:1;stroke-width:0.922131"><path
             d="M 8.1406076,79.270709 A 0.52916667,0.52916667 0 0 0 7.611441,79.799876 v 1.5875 a 0.52916667,0.52916667 0 0 0 0.5291666,0.529166 h 0.79375 v -0.529166 h -0.79375 v -1.5875 h 0.79375 v -0.529167 h -0.79375 m 1.5875,0 a 0.52916667,0.52916667 0 0 0 -0.529167,0.529167 v 1.5875 a 0.52916667,0.52916667 0 0 0 0.529167,0.529166 h 0.5291674 a 0.52916667,0.52916667 0 0 0 0.529166,-0.529166 v -1.5875 A 0.52916667,0.52916667 0 0 0 10.257275,79.270709 H 9.7281076 m 0,0.529167 h 0.5291674 v 1.5875 H 9.7281076 v -1.5875 m 1.3229174,0.396875 v 0.396875 h 0.79375 v 0.396875 H 11.4479 a 0.396875,0.396875 0 0 0 -0.396875,0.396875 v 0.79375 H 12.24165 V 81.784251 H 11.4479 v -0.396875 h 0.396875 a 0.396875,0.396875 0 0 0 0.396875,-0.396875 v -0.396875 a 0.396875,0.396875 0 0 0 -0.396875,-0.396875 z"
             id="path29640"
             style="fill:#7d8085;fill-opacity:1;stroke-width:0.243979" /><text
             xml:space="preserve"
             style="font-size:4.82203px;line-height:1.25;font-family:Ubuntu;-inkscape-font-specification:Ubuntu;fill:#7d8085;fill-opacity:1;stroke-width:0.243979"
             x="14.934471"
             y="82.399162"
             id="text29644"><tspan
               sodipodi:role="line"
               id="tspan29642"
               style="fill:#7d8085;fill-opacity:1;stroke-width:0.243979"
               x="14.934471"
               y="82.399162">1250</tspan></text></g><g
           id="g29660"
           transform="matrix(1.0842982,0,0,1.0845948,61.029153,-46.222701)"
           style="fill:#7d8085;fill-opacity:1;stroke-width:0.922131"><g
             id="g29654"
             transform="translate(-42.707994,11.262884)"
             style="fill:#7d8085;fill-opacity:1;stroke-width:0.922131"><path
               d="m 50.319435,72.636281 0.529167,2.645833 h 0.529166 l 0.529167,-2.645833 h -0.529167 l -0.264583,1.322917 -0.264583,-1.322917 z"
               id="path29648"
               style="fill:#7d8085;fill-opacity:1;stroke-width:0.243979" /><path
               d="m 54.439885,72.636281 a 0.52916667,0.52916667 0 0 0 -0.529167,0.529167 v 1.5875 a 0.52916667,0.52916667 0 0 0 0.529167,0.529166 h 0.529166 a 0.52916667,0.52916667 0 0 0 0.529167,-0.529166 v -0.264584 h -0.529167 v 0.264584 h -0.529166 v -1.5875 h 0.529166 v 0.264583 h 0.529167 v -0.264583 a 0.52916667,0.52916667 0 0 0 -0.529167,-0.529167 z"
               id="path29650"
               style="fill:#7d8085;fill-opacity:1;stroke-width:0.243979" /><path
               d="m 52.576792,72.636279 a 0.52916667,0.52916667 0 0 0 -0.529166,0.529167 v 1.587501 a 0.52916667,0.52916667 0 0 0 0.529166,0.529167 h 0.529167 a 0.52916667,0.52916667 0 0 0 0.529167,-0.529167 v -1.587501 a 0.52916667,0.52916667 0 0 0 -0.529167,-0.529167 h -0.529167 m 0,0.529167 h 0.529167 v 1.587501 h -0.529167 z"
               id="path29652"
               style="fill:#7d8085;fill-opacity:1;stroke-width:0.243979" /></g><text
             xml:space="preserve"
             style="font-size:4.82203px;line-height:1.25;font-family:Ubuntu;-inkscape-font-specification:Ubuntu;fill:#7d8085;fill-opacity:1;stroke-width:0.243979"
             x="14.934471"
             y="86.895325"
             id="text29658"><tspan
               sodipodi:role="line"
               id="tspan29656"
               style="fill:#7d8085;fill-opacity:1;stroke-width:0.243979"
               x="14.934471"
               y="86.895325">150</tspan></text></g></g><g
         id="g34252"
         transform="matrix(0.66666668,0,0,0.66666668,50.400938,21.919058)"
         style="stroke-width:1.5"><path
           id="path34246"
           style="display:inline;fill:#373737;fill-opacity:1;stroke:none;stroke-width:0.396875;stroke-dasharray:none;stroke-opacity:1;paint-order:markers fill stroke;stop-color:#000000"
           d="m 80.15686,39.562962 h 25.4 v 25.399999 h -25.4 z" /><path
           d="m 108.32434,92.670177 a 2.7450438,2.7450438 0 0 1 2.74504,2.745043 c 0,1.015666 -0.55357,1.903231 -1.37252,2.379039 v 0.823515 a 0.4575073,0.4575073 0 0 1 -0.4575,0.457505 h -1.83004 a 0.4575073,0.4575073 0 0 1 -0.4575,-0.457505 v -0.823515 c -0.81893,-0.475808 -1.37252,-1.363373 -1.37252,-2.379039 a 2.7450438,2.7450438 0 0 1 2.74504,-2.745043 m 0.91502,6.862607 v 0.457511 a 0.4575073,0.4575073 0 0 1 -0.45752,0.457505 h -0.915 a 0.4575073,0.4575073 0 0 1 -0.45752,-0.457505 v -0.457511 h 1.83004 m 2.74505,-4.575071 h 1.37252 v 0.915015 h -1.37252 v -0.915015 m -8.69266,0 h 1.37252 v 0.915015 h -1.37252 v -0.915015 m 5.49009,-4.575072 v 1.372522 h -0.915 v -1.372522 h 0.915 m -3.69665,1.143767 0.97448,0.979065 -0.64964,0.645087 -0.9745,-0.969916 0.64966,-0.654236 m 5.50382,0.974492 0.96991,-0.974492 0.65423,0.654236 -0.97448,0.969916 z"
           id="path34248"
           style="fill:#cccccc;fill-opacity:1;stroke-width:0.264583"
           transform="matrix(1.5,0,0,1.5,-69.373491,-91.219524)" /><path
           id="path34250"
           style="display:inline;fill:#e6e6e6;fill-opacity:0;stroke:#79838f;stroke-width:0.396874;stroke-opacity:1;paint-order:markers fill stroke;stop-color:#000000"
           d="m 80.15686,39.562962 h 25.4 v 25.399999 h -25.4 z"
           class="" /></g><text
         xml:space="preserve"
         style="font-size:5.54723px;line-height:1.25;font-family:Ubuntu;-inkscape-font-specification:Ubuntu;fill:#7d8085;fill-opacity:1;stroke-width:0.264582"
         x="68.969963"
         y="80.419502"
         id="text29836"
         transform="scale(0.99986322,1.0001368)"><tspan
           sodipodi:role="line"
           id="tspan29834"
           style="fill:#7d8085;fill-opacity:1;stroke-width:0.264582"
           x="68.969963"
           y="80.419502">Гостиная</tspan></text><g
         id="g29848"
         transform="matrix(1.578513,0,0,1.5789449,60.231832,-13.962178)"
         style="stroke-width:0.633421"><text
           xml:space="preserve"
           style="font-size:10.5833px;line-height:1.25;font-family:Ubuntu;-inkscape-font-specification:Ubuntu;fill:#cccccc;fill-opacity:1;stroke-width:0.167593"
           x="5.1408281"
           y="69.424477"
           id="text29842"><tspan
             sodipodi:role="line"
             id="tspan29840"
             style="font-size:10.5833px;fill:#cccccc;fill-opacity:1;stroke-width:0.167593"
             x="5.1408281"
             y="69.424477">26.8</tspan></text><text
           xml:space="preserve"
           style="font-size:4.23333px;line-height:1.25;font-family:Ubuntu;-inkscape-font-specification:Ubuntu;fill:#cccccc;fill-opacity:1;stroke-width:0.167593"
           x="26.075596"
           y="65.158752"
           id="text29846"><tspan
             sodipodi:role="line"
             id="tspan29844"
             style="font-size:4.23333px;fill:#cccccc;fill-opacity:1;stroke-width:0.167593"
             x="26.075596"
             y="65.158752">°С</tspan></text></g><g
         id="g38748"
         transform="translate(0,15.426042)"><g
           id="g29856"
           transform="matrix(1.0842982,0,0,1.0845948,61.029153,4.6720867)"
           style="fill:#7d8085;fill-opacity:1;stroke-width:0.922131"><path
             d="m 8.9265416,73.943213 c 0,0 -1.3151006,1.479488 -1.3151006,2.356221 0,0.72769 0.5896046,1.315101 1.3151006,1.315101 a 1.3151008,1.3151008 0 0 0 1.3151004,-1.315101 c 0,-0.876733 -1.3151004,-2.356221 -1.3151004,-2.356221 m 0.541384,1.472912 0.232335,0.232335 -1.315101,1.3151 -0.232335,-0.232334 m 0.280555,-1.308525 a 0.27397934,0.27397934 0 0 1 0.273979,0.273979 0.27397934,0.27397934 0 0 1 -0.273979,0.273979 0.27397934,0.27397934 0 0 1 -0.273979,-0.273979 0.27397934,0.27397934 0 0 1 0.273979,-0.273979 m 0.986325,0.986325 a 0.27397934,0.27397934 0 0 1 0.27398,0.273979 0.27397934,0.27397934 0 0 1 -0.27398,0.27398 0.27397934,0.27397934 0 0 1 -0.273979,-0.27398 0.27397934,0.27397934 0 0 1 0.273979,-0.273979 z"
             id="path29850"
             style="fill:#7d8085;fill-opacity:1;stroke-width:0.243979" /><text
             xml:space="preserve"
             style="font-size:4.82203px;line-height:1.25;font-family:Ubuntu;-inkscape-font-specification:Ubuntu;fill:#7d8085;fill-opacity:1;stroke-width:0.243979"
             x="15.069487"
             y="77.449707"
             id="text29854"><tspan
               sodipodi:role="line"
               id="tspan29852"
               style="fill:#7d8085;fill-opacity:1;stroke-width:0.243979"
               x="15.069487"
               y="77.449707">56 %</tspan></text></g><g
           id="g29864"
           transform="matrix(1.0842982,0,0,1.0845948,61.029153,5.7677833)"
           style="fill:#7d8085;fill-opacity:1;stroke-width:0.922131"><path
             d="M 8.1406076,79.270709 A 0.52916667,0.52916667 0 0 0 7.611441,79.799876 v 1.5875 a 0.52916667,0.52916667 0 0 0 0.5291666,0.529166 h 0.79375 v -0.529166 h -0.79375 v -1.5875 h 0.79375 v -0.529167 h -0.79375 m 1.5875,0 a 0.52916667,0.52916667 0 0 0 -0.529167,0.529167 v 1.5875 a 0.52916667,0.52916667 0 0 0 0.529167,0.529166 h 0.5291674 a 0.52916667,0.52916667 0 0 0 0.529166,-0.529166 v -1.5875 A 0.52916667,0.52916667 0 0 0 10.257275,79.270709 H 9.7281076 m 0,0.529167 h 0.5291674 v 1.5875 H 9.7281076 v -1.5875 m 1.3229174,0.396875 v 0.396875 h 0.79375 v 0.396875 H 11.4479 a 0.396875,0.396875 0 0 0 -0.396875,0.396875 v 0.79375 H 12.24165 V 81.784251 H 11.4479 v -0.396875 h 0.396875 a 0.396875,0.396875 0 0 0 0.396875,-0.396875 v -0.396875 a 0.396875,0.396875 0 0 0 -0.396875,-0.396875 z"
             id="path29858"
             style="fill:#7d8085;fill-opacity:1;stroke-width:0.243979" /><text
             xml:space="preserve"
             style="font-size:4.82203px;line-height:1.25;font-family:Ubuntu;-inkscape-font-specification:Ubuntu;fill:#7d8085;fill-opacity:1;stroke-width:0.243979"
             x="14.934471"
             y="82.399162"
             id="text29862"><tspan
               sodipodi:role="line"
               id="tspan29860"
               style="fill:#7d8085;fill-opacity:1;stroke-width:0.243979"
               x="14.934471"
               y="82.399162">1250</tspan></text></g><g
           id="g29878"
           transform="matrix(1.0842982,0,0,1.0845948,61.029153,7.2547967)"
           style="fill:#7d8085;fill-opacity:1;stroke-width:0.922131"><g
             id="g29872"
             transform="translate(-42.707994,11.262884)"
             style="fill:#7d8085;fill-opacity:1;stroke-width:0.922131"><path
               d="m 50.319435,72.636281 0.529167,2.645833 h 0.529166 l 0.529167,-2.645833 h -0.529167 l -0.264583,1.322917 -0.264583,-1.322917 z"
               id="path29866"
               style="fill:#7d8085;fill-opacity:1;stroke-width:0.243979" /><path
               d="m 54.439885,72.636281 a 0.52916667,0.52916667 0 0 0 -0.529167,0.529167 v 1.5875 a 0.52916667,0.52916667 0 0 0 0.529167,0.529166 h 0.529166 a 0.52916667,0.52916667 0 0 0 0.529167,-0.529166 v -0.264584 h -0.529167 v 0.264584 h -0.529166 v -1.5875 h 0.529166 v 0.264583 h 0.529167 v -0.264583 a 0.52916667,0.52916667 0 0 0 -0.529167,-0.529167 z"
               id="path29868"
               style="fill:#7d8085;fill-opacity:1;stroke-width:0.243979" /><path
               d="m 52.576792,72.636279 a 0.52916667,0.52916667 0 0 0 -0.529166,0.529167 v 1.587501 a 0.52916667,0.52916667 0 0 0 0.529166,0.529167 h 0.529167 a 0.52916667,0.52916667 0 0 0 0.529167,-0.529167 v -1.587501 a 0.52916667,0.52916667 0 0 0 -0.529167,-0.529167 h -0.529167 m 0,0.529167 h 0.529167 v 1.587501 h -0.529167 z"
               id="path29870"
               style="fill:#7d8085;fill-opacity:1;stroke-width:0.243979" /></g><text
             xml:space="preserve"
             style="font-size:4.82203px;line-height:1.25;font-family:Ubuntu;-inkscape-font-specification:Ubuntu;fill:#7d8085;fill-opacity:1;stroke-width:0.243979"
             x="14.934471"
             y="86.895325"
             id="text29876"><tspan
               sodipodi:role="line"
               id="tspan29874"
               style="fill:#7d8085;fill-opacity:1;stroke-width:0.243979"
               x="14.934471"
               y="86.895325">150</tspan></text></g></g><g
         id="g34260"
         transform="matrix(0.66666668,0,0,0.66666668,50.400938,73.809053)"
         style="stroke-width:1.5"><path
           id="path34254"
           style="display:inline;fill:#373737;fill-opacity:1;stroke:none;stroke-width:0.396875;stroke-dasharray:none;paint-order:markers fill stroke;stop-color:#000000"
           d="m 80.15686,39.562962 h 25.4 v 25.399999 h -25.4 z" /><path
           d="m 108.32434,92.670177 a 2.7450438,2.7450438 0 0 1 2.74504,2.745043 c 0,1.015666 -0.55357,1.903231 -1.37252,2.379039 v 0.823515 a 0.4575073,0.4575073 0 0 1 -0.4575,0.457505 h -1.83004 a 0.4575073,0.4575073 0 0 1 -0.4575,-0.457505 v -0.823515 c -0.81893,-0.475808 -1.37252,-1.363373 -1.37252,-2.379039 a 2.7450438,2.7450438 0 0 1 2.74504,-2.745043 m 0.91502,6.862607 v 0.457511 a 0.4575073,0.4575073 0 0 1 -0.45752,0.457505 h -0.915 a 0.4575073,0.4575073 0 0 1 -0.45752,-0.457505 v -0.457511 h 1.83004 m 2.74505,-4.575071 h 1.37252 v 0.915015 h -1.37252 v -0.915015 m -8.69266,0 h 1.37252 v 0.915015 h -1.37252 v -0.915015 m 5.49009,-4.575072 v 1.372522 h -0.915 v -1.372522 h 0.915 m -3.69665,1.143767 0.97448,0.979065 -0.64964,0.645087 -0.9745,-0.969916 0.64966,-0.654236 m 5.50382,0.974492 0.96991,-0.974492 0.65423,0.654236 -0.97448,0.969916 z"
           id="path34256"
           style="fill:#cccccc;fill-opacity:1;stroke-width:0.264583"
           transform="matrix(1.5,0,0,1.5,-69.373491,-91.219524)" /><path
           id="path34258"
           style="display:inline;fill:#e6e6e6;fill-opacity:0;stroke:#79838f;stroke-width:0.396874;stroke-opacity:1;paint-order:markers fill stroke;stop-color:#000000"
           d="m 80.15686,39.562962 h 25.4 v 25.399999 h -25.4 z"
           class="" /></g><text
         xml:space="preserve"
         style="font-size:5.54723px;line-height:1.25;font-family:Ubuntu;-inkscape-font-specification:Ubuntu;fill:#7d8085;fill-opacity:1;stroke-width:0.264582"
         x="36.014431"
         y="80.419502"
         id="text29786"
         transform="scale(0.99986322,1.0001368)"><tspan
           sodipodi:role="line"
           id="tspan29784"
           style="fill:#7d8085;fill-opacity:1;stroke-width:0.264582"
           x="36.014431"
           y="80.419502">Спальня</tspan></text><g
         id="g29798"
         transform="matrix(1.578513,0,0,1.5789449,-0.55225615,-13.962178)"
         style="stroke-width:0.633421"><text
           xml:space="preserve"
           style="font-size:10.5833px;line-height:1.25;font-family:Ubuntu;-inkscape-font-specification:Ubuntu;fill:#cccccc;fill-opacity:1;stroke-width:0.167593"
           x="5.1408281"
           y="69.424477"
           id="text29792"><tspan
             sodipodi:role="line"
             id="tspan29790"
             style="font-size:10.5833px;fill:#cccccc;fill-opacity:1;stroke-width:0.167593"
             x="5.1408281"
             y="69.424477">26.8</tspan></text><text
           xml:space="preserve"
           style="font-size:4.23333px;line-height:1.25;font-family:Ubuntu;-inkscape-font-specification:Ubuntu;fill:#cccccc;fill-opacity:1;stroke-width:0.167593"
           x="26.075596"
           y="65.158752"
           id="text29796"><tspan
             sodipodi:role="line"
             id="tspan29794"
             style="font-size:4.23333px;fill:#cccccc;fill-opacity:1;stroke-width:0.167593"
             x="26.075596"
             y="65.158752">°С</tspan></text></g><g
         id="g38731"
         transform="translate(0,15.426042)"><g
           id="g29806"
           transform="matrix(1.0842982,0,0,1.0845948,0.24506525,4.6720867)"
           style="fill:#7d8085;fill-opacity:1;stroke-width:0.922131"><path
             d="m 8.9265416,73.943213 c 0,0 -1.3151006,1.479488 -1.3151006,2.356221 0,0.72769 0.5896046,1.315101 1.3151006,1.315101 a 1.3151008,1.3151008 0 0 0 1.3151004,-1.315101 c 0,-0.876733 -1.3151004,-2.356221 -1.3151004,-2.356221 m 0.541384,1.472912 0.232335,0.232335 -1.315101,1.3151 -0.232335,-0.232334 m 0.280555,-1.308525 a 0.27397934,0.27397934 0 0 1 0.273979,0.273979 0.27397934,0.27397934 0 0 1 -0.273979,0.273979 0.27397934,0.27397934 0 0 1 -0.273979,-0.273979 0.27397934,0.27397934 0 0 1 0.273979,-0.273979 m 0.986325,0.986325 a 0.27397934,0.27397934 0 0 1 0.27398,0.273979 0.27397934,0.27397934 0 0 1 -0.27398,0.27398 0.27397934,0.27397934 0 0 1 -0.273979,-0.27398 0.27397934,0.27397934 0 0 1 0.273979,-0.273979 z"
             id="path29800"
             style="fill:#7d8085;fill-opacity:1;stroke-width:0.243979" /><text
             xml:space="preserve"
             style="font-size:4.82203px;line-height:1.25;font-family:Ubuntu;-inkscape-font-specification:Ubuntu;fill:#7d8085;fill-opacity:1;stroke-width:0.243979"
             x="15.069487"
             y="77.449707"
             id="text29804"><tspan
               sodipodi:role="line"
               id="tspan29802"
               style="fill:#7d8085;fill-opacity:1;stroke-width:0.243979"
               x="15.069487"
               y="77.449707">56 %</tspan></text></g><g
           id="g29814"
           transform="matrix(1.0842982,0,0,1.0845948,0.24506525,5.7677833)"
           style="fill:#7d8085;fill-opacity:1;stroke-width:0.922131"><path
             d="M 8.1406076,79.270709 A 0.52916667,0.52916667 0 0 0 7.611441,79.799876 v 1.5875 a 0.52916667,0.52916667 0 0 0 0.5291666,0.529166 h 0.79375 v -0.529166 h -0.79375 v -1.5875 h 0.79375 v -0.529167 h -0.79375 m 1.5875,0 a 0.52916667,0.52916667 0 0 0 -0.529167,0.529167 v 1.5875 a 0.52916667,0.52916667 0 0 0 0.529167,0.529166 h 0.5291674 a 0.52916667,0.52916667 0 0 0 0.529166,-0.529166 v -1.5875 A 0.52916667,0.52916667 0 0 0 10.257275,79.270709 H 9.7281076 m 0,0.529167 h 0.5291674 v 1.5875 H 9.7281076 v -1.5875 m 1.3229174,0.396875 v 0.396875 h 0.79375 v 0.396875 H 11.4479 a 0.396875,0.396875 0 0 0 -0.396875,0.396875 v 0.79375 H 12.24165 V 81.784251 H 11.4479 v -0.396875 h 0.396875 a 0.396875,0.396875 0 0 0 0.396875,-0.396875 v -0.396875 a 0.396875,0.396875 0 0 0 -0.396875,-0.396875 z"
             id="path29808"
             style="fill:#7d8085;fill-opacity:1;stroke-width:0.243979" /><text
             xml:space="preserve"
             style="font-size:4.82203px;line-height:1.25;font-family:Ubuntu;-inkscape-font-specification:Ubuntu;fill:#7d8085;fill-opacity:1;stroke-width:0.243979"
             x="14.934471"
             y="82.399162"
             id="text29812"><tspan
               sodipodi:role="line"
               id="tspan29810"
               style="fill:#7d8085;fill-opacity:1;stroke-width:0.243979"
               x="14.934471"
               y="82.399162">1250</tspan></text></g><g
           id="g29828"
           transform="matrix(1.0842982,0,0,1.0845948,0.24506525,7.2547967)"
           style="fill:#7d8085;fill-opacity:1;stroke-width:0.922131"><g
             id="g29822"
             transform="translate(-42.707994,11.262884)"
             style="fill:#7d8085;fill-opacity:1;stroke-width:0.922131"><path
               d="m 50.319435,72.636281 0.529167,2.645833 h 0.529166 l 0.529167,-2.645833 h -0.529167 l -0.264583,1.322917 -0.264583,-1.322917 z"
               id="path29816"
               style="fill:#7d8085;fill-opacity:1;stroke-width:0.243979" /><path
               d="m 54.439885,72.636281 a 0.52916667,0.52916667 0 0 0 -0.529167,0.529167 v 1.5875 a 0.52916667,0.52916667 0 0 0 0.529167,0.529166 h 0.529166 a 0.52916667,0.52916667 0 0 0 0.529167,-0.529166 v -0.264584 h -0.529167 v 0.264584 h -0.529166 v -1.5875 h 0.529166 v 0.264583 h 0.529167 v -0.264583 a 0.52916667,0.52916667 0 0 0 -0.529167,-0.529167 z"
               id="path29818"
               style="fill:#7d8085;fill-opacity:1;stroke-width:0.243979" /><path
               d="m 52.576792,72.636279 a 0.52916667,0.52916667 0 0 0 -0.529166,0.529167 v 1.587501 a 0.52916667,0.52916667 0 0 0 0.529166,0.529167 h 0.529167 a 0.52916667,0.52916667 0 0 0 0.529167,-0.529167 v -1.587501 a 0.52916667,0.52916667 0 0 0 -0.529167,-0.529167 h -0.529167 m 0,0.529167 h 0.529167 v 1.587501 h -0.529167 z"
               id="path29820"
               style="fill:#7d8085;fill-opacity:1;stroke-width:0.243979" /></g><text
             xml:space="preserve"
             style="font-size:4.82203px;line-height:1.25;font-family:Ubuntu;-inkscape-font-specification:Ubuntu;fill:#7d8085;fill-opacity:1;stroke-width:0.243979"
             x="14.934471"
             y="86.895325"
             id="text29826"><tspan
               sodipodi:role="line"
               id="tspan29824"
               style="fill:#7d8085;fill-opacity:1;stroke-width:0.243979"
               x="14.934471"
               y="86.895325">150</tspan></text></g></g><g
         id="g34268"
         transform="matrix(0.66666668,0,0,0.66666668,-10.383149,73.809053)"
         style="stroke-width:1.5"><path
           id="path34262"
           style="display:inline;fill:#373737;fill-opacity:1;stroke:none;stroke-width:0.396875;stroke-dasharray:none;stroke-opacity:1;paint-order:markers fill stroke;stop-color:#000000"
           d="m 80.15686,39.562962 h 25.4 v 25.399999 h -25.4 z" /><path
           d="m 108.32434,92.670177 a 2.7450438,2.7450438 0 0 1 2.74504,2.745043 c 0,1.015666 -0.55357,1.903231 -1.37252,2.379039 v 0.823515 a 0.4575073,0.4575073 0 0 1 -0.4575,0.457505 h -1.83004 a 0.4575073,0.4575073 0 0 1 -0.4575,-0.457505 v -0.823515 c -0.81893,-0.475808 -1.37252,-1.363373 -1.37252,-2.379039 a 2.7450438,2.7450438 0 0 1 2.74504,-2.745043 m 0.91502,6.862607 v 0.457511 a 0.4575073,0.4575073 0 0 1 -0.45752,0.457505 h -0.915 a 0.4575073,0.4575073 0 0 1 -0.45752,-0.457505 v -0.457511 h 1.83004 m 2.74505,-4.575071 h 1.37252 v 0.915015 h -1.37252 v -0.915015 m -8.69266,0 h 1.37252 v 0.915015 h -1.37252 v -0.915015 m 5.49009,-4.575072 v 1.372522 h -0.915 v -1.372522 h 0.915 m -3.69665,1.143767 0.97448,0.979065 -0.64964,0.645087 -0.9745,-0.969916 0.64966,-0.654236 m 5.50382,0.974492 0.96991,-0.974492 0.65423,0.654236 -0.97448,0.969916 z"
           id="path34264"
           style="fill:#cccccc;fill-opacity:1;stroke-width:0.264583"
           transform="matrix(1.5,0,0,1.5,-69.373491,-91.219524)" /><path
           id="path34266"
           style="display:inline;fill:#e6e6e6;fill-opacity:0;stroke:#79838f;stroke-width:0.396874;stroke-opacity:1;paint-order:markers fill stroke;stop-color:#000000"
           d="m 80.15686,39.562962 h 25.4 v 25.399999 h -25.4 z"
           class="" /></g><path
         style="fill:none;stroke:#79838f;stroke-width:0.264583px;stroke-linecap:butt;stroke-linejoin:miter;stroke-opacity:1"
         d="M 63.536278,22.516482 V 118.63263"
         id="path36713"
         sodipodi:nodetypes="cc" /></g><path
       style="fill:none;stroke:#79838f;stroke-width:0.264583px;stroke-linecap:butt;stroke-linejoin:miter;stroke-opacity:1"
       d="M 100.18374,114.24606 H 2.8572308"
       id="path2668"
       sodipodi:nodetypes="cc" /><text
       xml:space="preserve"
       style="font-size:7.78119px;line-height:1.25;font-family:Ubuntu;-inkscape-font-specification:Ubuntu;fill:#808080;fill-opacity:1;stroke-width:0.264583"
       x="5.3122683"
       y="121.84938"
       id="text11046"><tspan
         sodipodi:role="line"
         style="font-size:7.78119px;fill:#808080;fill-opacity:1;stroke-width:0.264583"
         x="5.3122683"
         y="121.84938"
         id="tspan11591">Квартира</tspan></text><title
       id="title48722">tune-vertical</title><a
       id="a433"
       xlink:href="/#!/dashboards/svg/view/4in-panel-thermostat"><g
         id="g49584"
         transform="matrix(0.66666668,0,0,0.66666668,50.400938,79.404089)"
         style="stroke-width:1.5"><path
           id="path49578"
           style="display:inline;fill:#373737;fill-opacity:1;stroke:none;stroke-width:0.396875;stroke-dasharray:none;stroke-opacity:1;paint-order:markers fill stroke;stop-color:#000000"
           d="m 80.15686,39.562962 h 25.4 v 25.399999 h -25.4 z" /><title
           id="title49661">cog-outline</title><path
           d="m 92.856821,49.584247 a 2.6787194,2.6787194 0 0 1 2.678737,2.678718 2.6787194,2.6787194 0 0 1 -2.678737,2.678722 2.6787194,2.6787194 0 0 1 -2.678711,-2.678722 2.6787194,2.6787194 0 0 1 2.678711,-2.678718 m 0,1.339361 a 1.3393598,1.3393598 0 0 0 -1.339342,1.339357 1.3393598,1.3393598 0 0 0 1.339342,1.339361 1.3393598,1.3393598 0 0 0 1.339369,-1.339361 1.3393598,1.3393598 0 0 0 -1.339369,-1.339357 m -1.339342,8.036157 c -0.167305,0 -0.308057,-0.120555 -0.334862,-0.281265 l -0.247791,-1.774652 c -0.42188,-0.16743 -0.783519,-0.395111 -1.131745,-0.662984 l -1.667496,0.676376 c -0.147308,0.05358 -0.328154,0 -0.408516,-0.147334 l -1.339368,-2.317092 c -0.08707,-0.147333 -0.04682,-0.328143 0.08048,-0.428596 l 1.413022,-1.111668 -0.04682,-0.649589 0.04682,-0.66968 -1.413022,-1.091578 c -0.127314,-0.10046 -0.167305,-0.281266 -0.08048,-0.428595 l 1.339368,-2.317094 c 0.08023,-0.147334 0.261182,-0.207598 0.408516,-0.147334 l 1.667496,0.669679 c 0.348226,-0.261174 0.709865,-0.488863 1.131745,-0.656284 l 0.247791,-1.774652 c 0.02684,-0.160723 0.167305,-0.281266 0.334862,-0.281266 h 2.678711 c 0.167303,0 0.308057,0.120555 0.334835,0.281266 l 0.247793,1.774652 c 0.421904,0.167431 0.783519,0.39511 1.131769,0.656284 l 1.667496,-0.669679 c 0.147309,-0.06027 0.328155,0 0.408516,0.147334 l 1.339343,2.317094 c 0.08707,0.147334 0.04682,0.328144 -0.08023,0.428595 l -1.413023,1.091578 0.04682,0.66968 -0.04682,0.669681 1.413023,1.091576 c 0.127313,0.100461 0.167304,0.281265 0.08023,0.428596 l -1.339343,2.317092 c -0.08048,0.147334 -0.261181,0.207599 -0.408516,0.147334 l -1.667496,-0.669679 c -0.34825,0.261176 -0.709865,0.488867 -1.131769,0.656287 L 94.531025,58.6785 c -0.02682,0.160724 -0.167303,0.281265 -0.334835,0.281265 h -2.678711 m 0.837101,-12.054237 -0.247791,1.747863 c -0.803616,0.167431 -1.513481,0.596014 -2.029137,1.19203 l -1.613938,-0.696466 -0.502268,0.870583 1.413049,1.038004 c -0.267889,0.783527 -0.267889,1.63402 0,2.410847 l -1.419731,1.0447 0.502268,0.870586 1.627302,-0.696467 c 0.515656,0.589316 1.218839,1.017913 2.015748,1.178636 l 0.247791,1.754561 h 1.017923 l 0.247791,-1.747867 c 0.796909,-0.167429 1.500066,-0.596014 2.015722,-1.18533 l 1.627328,0.696467 0.502266,-0.870586 -1.419729,-1.038004 c 0.267864,-0.783523 0.267864,-1.634016 0,-2.417543 l 1.413022,-1.038004 -0.502266,-0.870583 -1.613913,0.696466 C 95.120335,49.249406 94.410496,48.820812 93.60688,48.660088 l -0.247793,-1.75456 z"
           id="path49663"
           style="fill:#cccccc;fill-opacity:1;stroke-width:0.396875" /><path
           id="path49582"
           style="display:inline;fill:#e6e6e6;fill-opacity:0;stroke:#79838f;stroke-width:0.396874;stroke-opacity:1;paint-order:markers fill stroke;stop-color:#000000"
           d="m 80.15686,39.562962 h 25.4 v 25.399999 h -25.4 z"
           class="" /></g></a></g></svg>
