<svg width="480" height="480" viewBox="0 0 127 127" version="1.1" id="svg5" inkscape:version="1.2.2 (b0a8486541, 2022-12-01)" sodipodi:docname="4in-panel-thermostat.svg" xml:space="preserve" style="" xmlns:inkscape="http://www.inkscape.org/namespaces/inkscape" xmlns:sodipodi="http://sodipodi.sourceforge.net/DTD/sodipodi-0.dtd" xmlns:xlink="http://www.w3.org/1999/xlink" xmlns="http://www.w3.org/2000/svg" xmlns:svg="http://www.w3.org/2000/svg"><defs id="defs1266"><style type="text/css" id="style1264"></style></defs><sodipodi:namedview id="namedview7" pagecolor="#ffffff" bordercolor="#666666" borderopacity="1.0" inkscape:showpageshadow="2" inkscape:pageopacity="0.0" inkscape:pagecheckerboard="0" inkscape:deskcolor="#d1d1d1" inkscape:document-units="px" showgrid="true" inkscape:zoom="2.0000001" inkscape:cx="279.49999" inkscape:cy="230.24999" inkscape:window-width="2560" inkscape:window-height="1379" inkscape:window-x="1920" inkscape:window-y="0" inkscape:window-maximized="1" inkscape:current-layer="layer1" showguides="true"><inkscape:grid type="xygrid" id="grid3900" snapvisiblegridlinesonly="true" spacingx="5.2916667" spacingy="2.1166667"></inkscape:grid></sodipodi:namedview><defs id="defs2"></defs><g inkscape:label="Слой 1" inkscape:groupmode="layer" id="layer1"><rect style="fill:#1a1a1a;stroke-width:0.529167;stroke-linecap:round;stroke-linejoin:round;paint-order:markers fill stroke;stop-color:#000000" id="rect384" width="127" height="127" x="0" y="-1.1546319e-14"></rect><title id="title678">radiator</title><title id="title321">snowflake</title><path style="fill:none;stroke:#79838f;stroke-width:0.264583px;stroke-linecap:butt;stroke-linejoin:miter;stroke-opacity:1" d="M 124.14277,14.74845 H 2.8572315" id="path2668" sodipodi:nodetypes="cc"></path><g id="g1611" transform="translate(18.453619,92.479739)"><rect style="fill:#4d4d4d;fill-opacity:1;stroke:#79838f;stroke-width:0.264583;stroke-dasharray:none;stroke-opacity:1;paint-order:markers fill stroke;stop-color:#000000" id="rect361" width="25.4" height="25.4" x="80.15686" y="5.558095"></rect><path d="m 93.721838,17.281301 h 3.77608 v 1.62799 h -3.77608 v 4.279288 h -1.72994 v -4.279288 h -3.77609 v -1.62799 h 3.77609 v -3.95369 h 1.72994 z" style="font-size:19.05px;line-height:1.25;font-family:Roboto;-inkscape-font-specification:Roboto;fill:#cccccc;stroke-width:0.264583;fill-opacity:1" id="path425" class=""></path><path id="rect1477" style="fill:#e6e6e6;fill-opacity:0;stroke:#79838f;stroke-width:0.264583;paint-order:markers fill stroke;stop-color:#000000" d="m 80.15686,5.558095 h 25.4 v 25.4 h -25.4 z" class="" data-svg-param-id="f1874baba6c3"></path></g><g id="g1615" transform="translate(-11.137762,58.474873)"><path id="rect1607" style="fill:#4d4d4d;stroke:#79838f;stroke-width:0.264583;paint-order:markers fill stroke;stop-color:#000000" d="m 80.15686,39.562962 h 25.4 v 25.399999 h -25.4 z"></path><path d="m 96.739913,52.965321 h -7.7661 v -1.404723 h 7.7661 z" style="font-size:13.756px;line-height:1.25;font-family:Roboto;-inkscape-font-specification:Roboto;fill:#cccccc;stroke-width:0.264583;fill-opacity:1" id="path427" class=""></path><path id="rect1386" style="fill:#e6e6e6;fill-opacity:0;stroke:#79838f;stroke-width:0.264583;paint-order:markers fill stroke;stop-color:#000000" d="m 80.15686,39.562962 h 25.4 v 25.399999 h -25.4 z" class="" data-svg-param-id="f1874babaa86"></path></g><text xml:space="preserve" style="font-size:7.78119px;line-height:1.25;font-family:Ubuntu;-inkscape-font-specification:Ubuntu;fill:#d66647;fill-opacity:1;stroke-width:0.264583" x="5.3122692" y="9.8133612" id="text11046"><tspan sodipodi:role="line" style="font-size:7.78119px;fill:#d66647;fill-opacity:1;stroke-width:0.264583" x="5.3122692" y="9.8133612" id="tspan11591">Термостат</tspan></text><a id="a377" transform="translate(2.8546202,-3.4515819)" xlink:href="/#!/dashboards/svg/view/4in-panel-main"><g id="g1270" transform="matrix(1.384695,0,0,1.3850056,-0.06759542,82.87411)" style="stroke-width:0.7221"><rect style="fill:#4d4d4d;fill-opacity:1;stroke:#79838f;stroke-width:0.191055;stroke-linecap:round;stroke-linejoin:round;stroke-opacity:1;paint-order:markers fill stroke;stop-color:#000000" id="rect1264" width="30.467463" height="18.299286" x="0.14622943" y="13.460595"></rect><text xml:space="preserve" style="font-size:6.878px;line-height:1.25;font-family:Ubuntu;-inkscape-font-specification:Ubuntu;fill:#cccccc;fill-opacity:1;stroke-width:0.191055" x="5.1905799" y="24.521166" id="text1268"><tspan sodipodi:role="line" id="tspan1266" style="font-style:normal;font-variant:normal;font-weight:normal;font-stretch:normal;font-size:6.878px;font-family:Roboto;-inkscape-font-specification:Roboto;fill:#cccccc;fill-opacity:1;stroke-width:0.191055" x="5.1905799" y="24.521166">Назад</tspan></text></g></a><g id="g4158" transform="translate(23.789308,6.580658)"><text xml:space="preserve" style="font-size:37.5227px;line-height:1.25;font-family:Ubuntu;-inkscape-font-specification:Ubuntu;fill:#cccccc;fill-opacity:1;stroke-width:0.264583" x="82.77272" y="65.543137" id="text388" class="" data-svg-param-id="f1874babae12" transform="scale(1.0078092,0.99225132)"><tspan sodipodi:role="line" id="tspan386" style="font-style:normal;font-variant:normal;font-weight:normal;font-stretch:normal;font-size:37.5227px;font-family:Roboto;-inkscape-font-specification:Roboto;text-align:end;text-anchor:end;fill:#cccccc;fill-opacity:1;stroke-width:0.264583" x="82.772713" y="65.543137">20.5</tspan></text><text xml:space="preserve" style="font-size:7.78119px;line-height:1.25;font-family:Ubuntu;-inkscape-font-specification:Ubuntu;fill:#e6e6e6;fill-opacity:1;stroke-width:0.264583" x="84.445427" y="43.711117" id="text3658"><tspan sodipodi:role="line" style="font-size:7.78119px;fill:#e6e6e6;fill-opacity:1;stroke-width:0.264583" x="84.445427" y="43.711117" id="tspan3656">°С</tspan></text></g><g id="g3954" transform="matrix(0.7421549,0,0,0.7421549,59.370376,-59.213371)" style="stroke-width:1.34743"><text xml:space="preserve" style="font-size:15.4335px;line-height:1.25;font-family:Ubuntu;-inkscape-font-specification:Ubuntu;fill:#808080;fill-opacity:1;stroke-width:0.356507" x="79.070824" y="95.924675" id="text2552" class="" transform="scale(1.0078092,0.99225131)" data-svg-param-id="f1874c8b36ce"><tspan sodipodi:role="line" id="tspan2550" style="font-style:normal;font-variant:normal;font-weight:normal;font-stretch:normal;font-size:15.4335px;font-family:Roboto;-inkscape-font-specification:Roboto;text-align:end;text-anchor:end;fill:#808080;fill-opacity:1;stroke-width:0.356507" x="79.070824" y="95.924675">21.5</tspan></text><text xml:space="preserve" style="font-size:4.30135px;line-height:1.25;font-family:Ubuntu;-inkscape-font-specification:Ubuntu;fill:#808080;fill-opacity:1;stroke-width:0.356507" x="80.258217" y="86.867828" id="text3731"><tspan sodipodi:role="line" style="font-size:4.30135px;fill:#808080;fill-opacity:1;stroke-width:0.356507" x="80.258217" y="86.867828" id="tspan3729">°С</tspan></text></g><title id="title4492">thermostat-auto</title><g id="g9059" inkscape:label="auto"><path id="path4558" style="fill:#4d4d4d;stroke:#79838f;stroke-width:0.264583;paint-order:markers fill stroke;stop-color:#000000" d="M 5.74961,23.515053 H 20.451925 V 38.192606 H 5.74961 Z"></path><path d="m 12.938096,28.011875 c -1.491144,0 -2.71117,1.217972 -2.71117,2.706607 0,1.488629 1.220026,2.706605 2.71117,2.706605 0.108445,0 0.189781,0 0.298228,-0.02704 l 0.623569,-1.786363 -0.16267,-0.1624 c 0.189783,-0.189456 0.32534,-0.460125 0.32534,-0.757842 0,-0.189468 -0.05423,-0.37893 -0.16267,-0.541327 l 0.596458,-0.595481 c 0.244005,0.351859 0.379564,0.730783 0.379564,1.16384 h 0.271117 c 0.08134,0 0.16267,0.02704 0.216893,0.05414 0,0 0.02711,0 0.02711,0.0271 0.108447,0.05415 0.216894,0.162395 0.271118,0.297724 0.02711,-0.135329 0.02711,-0.24359 0.02711,-0.378924 0,-1.488632 -1.220026,-2.706604 -2.71117,-2.706604 m 0.542234,1.786358 c -0.16267,-0.108262 -0.352452,-0.162395 -0.542234,-0.162395 -0.596457,0 -1.084468,0.487189 -1.084468,1.082641 0,0.297729 0.108446,0.568392 0.32534,0.757848 l -0.569345,0.568391 c -0.352454,-0.32479 -0.569346,-0.811987 -0.569346,-1.326239 0,-1.055574 0.840463,-1.894622 1.897819,-1.894622 0.433787,0 0.813352,0.135331 1.138692,0.378925 l -0.596458,0.595451 m 1.626702,1.461571 h -0.542233 l -0.867574,2.435942 h 0.515123 l 0.189781,-0.541318 h 0.867575 l 0.189782,0.541318 h 0.515122 l -0.867574,-2.435942 m -0.596458,1.542761 0.325341,-1.001442 0.32534,1.001442 z" id="path4494" style="fill:#cccccc;fill-opacity:1;stroke-width:0.213829"></path><path id="path7789" style="fill:#e6e6e6;stroke:#79838f;stroke-width:0.264583;paint-order:markers fill stroke;stop-color:#000000;fill-opacity:0" d="M 5.74961,23.515053 H 20.451925 V 38.192606 H 5.74961 Z" class="" data-svg-param-id="f1874c7fc03f"></path></g><g id="g9019" inkscape:label="heat"><path id="path2528" style="fill:#4d4d4d;stroke:#79838f;stroke-width:0.264583;paint-order:markers fill stroke;stop-color:#000000" d="M 5.74961,40.321649 H 20.451925 V 54.999201 H 5.74961 Z"></path><path d="m 11.772987,44.714585 -0.465527,0.716756 0.465527,0.723297 h -0.0032 l -0.65239,1.014589 -0.567158,-0.294563 0.465529,-0.723303 -0.465529,-0.72002 0.655674,-1.014584 0.567157,0.297828 m 1.96702,-0.036 -0.465527,0.723297 0.465527,0.720021 -0.0032,0.0035 -0.652391,1.011307 -0.567157,-0.294562 0.465529,-0.720021 -0.465529,-0.720021 0.655674,-1.014583 0.567157,0.291286 m 1.983412,0 -0.472085,0.723297 0.472085,0.720021 v 0.0035 l -0.655673,1.011307 -0.573714,-0.294563 0.465527,-0.720021 -0.465527,-0.72002 0.655672,-1.014583 0.573715,0.29128 m -5.90106,6.254402 v -2.618267 a 0.6556733,0.65456907 0 0 1 0.655673,-0.654575 h 5.245387 a 0.6556733,0.65456907 0 0 1 0.655673,0.654575 v 2.618267 h -0.655797 v -0.654561 h -5.245386 v 0.654561 H 9.8223585 m 1.3113475,-2.618267 a 0.32783664,0.32728453 0 0 0 -0.327837,0.32728 v 0.654573 a 0.32783664,0.32728453 0 0 0 0.327837,0.32728 0.32783664,0.32728453 0 0 0 0.327836,-0.32728 v -0.654573 a 0.32783664,0.32728453 0 0 0 -0.327836,-0.32728 m 1.311346,0 a 0.32783664,0.32728453 0 0 0 -0.327836,0.32728 v 0.654573 a 0.32783664,0.32728453 0 0 0 0.327836,0.32728 0.32783664,0.32728453 0 0 0 0.327837,-0.32728 v -0.654573 a 0.32783664,0.32728453 0 0 0 -0.327837,-0.32728 m 1.311347,0 a 0.32783664,0.32728453 0 0 0 -0.327837,0.32728 v 0.654573 a 0.32783664,0.32728453 0 0 0 0.327837,0.32728 0.32783664,0.32728453 0 0 0 0.327837,-0.32728 v -0.654573 a 0.32783664,0.32728453 0 0 0 -0.327837,-0.32728 m 1.311347,0 a 0.32783664,0.32728453 0 0 0 -0.327838,0.32728 v 0.654573 a 0.32783664,0.32728453 0 0 0 0.327838,0.32728 0.32783664,0.32728453 0 0 0 0.327836,-0.32728 v -0.654573 a 0.32783664,0.32728453 0 0 0 -0.327836,-0.32728 z" id="path680" style="fill:#d66647;fill-opacity:1;stroke-width:0.264583"></path><path id="path7791" style="fill:#e6e6e6;stroke:#79838f;stroke-width:0.264583;paint-order:markers fill stroke;stop-color:#000000;fill-opacity:0" d="M 5.74961,40.321649 H 20.451925 V 54.999201 H 5.74961 Z" class="" data-svg-param-id="f1874c7fe32f"></path></g><g id="g8979" inkscape:label="coll"><path id="path313" style="fill:#4d4d4d;stroke:#79838f;stroke-width:0.264583;paint-order:markers fill stroke;stop-color:#000000" d="M 5.74961,57.128241 H 20.451925 V 71.805795 H 5.74961 Z"></path><path d="m 16.769778,65.280053 -0.973112,0.258504 -0.83529,-0.471143 v -1.200792 l 0.83529,-0.471144 0.973112,0.258503 0.217175,-0.804695 -0.73923,-0.195964 0.192116,-0.737986 -0.806055,-0.216809 -0.258939,0.971473 -0.83529,0.471144 -1.023229,-0.600396 v -0.942287 l 0.714171,-0.712971 -0.593056,-0.587887 -0.538762,0.537854 -0.53876,-0.537854 -0.593056,0.587887 0.714171,0.712971 v 0.942287 l -1.044111,0.600396 -0.83529,-0.471144 -0.242234,-0.971473 -0.8018777,0.216809 0.1962927,0.737986 -0.7392324,0.195964 0.2171763,0.804695 0.9731121,-0.258503 0.835291,0.471144 v 1.204962 l -0.83529,0.471143 -0.9731125,-0.258504 -0.2171763,0.804697 0.7392324,0.195962 -0.1962933,0.733818 0.8060547,0.216809 0.258939,-0.971474 0.83529,-0.471143 1.02323,0.600395 v 0.942288 l -0.714172,0.712971 0.593056,0.587886 0.53876,-0.537853 0.538763,0.537853 0.588879,-0.587886 -0.709995,-0.712971 v -0.942288 l 1.044111,-0.604565 0.83529,0.471144 0.258939,0.971473 0.785173,-0.212639 -0.196293,-0.737988 0.739231,-0.195962 -0.212999,-0.804697 m -4.71521,-1.413431 1.044111,-0.604565 1.044113,0.604565 v 1.200792 l -1.044113,0.604565 -1.044111,-0.604565 z" id="path2526" style="fill:#477dd6;fill-opacity:1;stroke-width:0.264583"></path><path id="path7793" style="fill:#e6e6e6;stroke:#79838f;stroke-width:0.264583;paint-order:markers fill stroke;stop-color:#000000;fill-opacity:0" d="M 5.74961,57.128241 H 20.451925 V 71.805795 H 5.74961 Z" class="" data-svg-param-id="f1874c802081"></path></g><g id="g8939" inkscape:label="off"><path id="path4642" style="fill:#4d4d4d;stroke:#79838f;stroke-width:0.264583;paint-order:markers fill stroke;stop-color:#000000" d="M 5.7496088,73.934751 H 20.451925 V 88.612303 H 5.7496088 Z"></path><text xml:space="preserve" style="font-size:4.16548px;line-height:1.25;font-family:Ubuntu;-inkscape-font-specification:Ubuntu;fill:#e6e6e6;fill-opacity:1;stroke-width:0.264583" x="7.1432319" y="82.716179" id="text4650" transform="scale(1.0000684,0.99993159)"><tspan sodipodi:role="line" id="tspan4648" style="fill:#e6e6e6;fill-opacity:1;stroke-width:0.264583" x="7.1432319" y="82.716179">ВЫКЛ</tspan></text><path id="path6764" style="fill:#e6e6e6;fill-opacity:0.40000001;stroke:#e6e6e6;stroke-width:0.264584;stroke-dasharray:none;stroke-opacity:1;paint-order:markers fill stroke;stop-color:#000000" d="M 5.7496094,73.934751 H 20.451924 V 88.612303 H 5.7496094 Z" class="" data-svg-param-id="f1874c8052d1"></path></g></g></svg>