<?xml version="1.0" encoding="UTF-8" standalone="no"?>
<!-- Created with Inkscape (http://www.inkscape.org/) -->

<svg
   width="363.89572"
   height="213.94044"
   viewBox="0 0 96.280743 56.605076"
   version="1.1"
   id="svg5"
   xml:space="preserve"
   inkscape:version="1.2.2 (b0a8486541, 2022-12-01)"
   sodipodi:docname="buzzer-on-off.svg"
   xmlns:inkscape="http://www.inkscape.org/namespaces/inkscape"
   xmlns:sodipodi="http://sodipodi.sourceforge.net/DTD/sodipodi-0.dtd"
   xmlns="http://www.w3.org/2000/svg"
   xmlns:svg="http://www.w3.org/2000/svg"><sodipodi:namedview
     id="namedview7"
     pagecolor="#ffffff"
     bordercolor="#666666"
     borderopacity="1.0"
     inkscape:showpageshadow="2"
     inkscape:pageopacity="0.0"
     inkscape:pagecheckerboard="0"
     inkscape:deskcolor="#d1d1d1"
     inkscape:document-units="mm"
     showgrid="false"
     inkscape:zoom="2.3786088"
     inkscape:cx="238.79505"
     inkscape:cy="64.113107"
     inkscape:window-width="2560"
     inkscape:window-height="1379"
     inkscape:window-x="1920"
     inkscape:window-y="0"
     inkscape:window-maximized="1"
     inkscape:current-layer="layer1" /><defs
     id="defs2"><rect
       x="204.98006"
       y="74.759656"
       width="98.461408"
       height="42.519684"
       id="rect783" /></defs><g
     inkscape:label="Слой 1"
     inkscape:groupmode="layer"
     id="layer1"><text
       xml:space="preserve"
       transform="scale(0.26458333)"
       id="text781"
       style="font-size:20px;line-height:1.25;font-family:Ubuntu;-inkscape-font-specification:Ubuntu;white-space:pre;shape-inside:url(#rect783);display:inline" /><g
       id="g1508"
       transform="translate(-3.9071095,-17.152521)"><text
         xml:space="preserve"
         style="font-size:5.29167px;line-height:1.25;font-family:Ubuntu;-inkscape-font-specification:Ubuntu;stroke-width:0.264583"
         x="20.036316"
         y="63.04224"
         id="text1498"><tspan
           sodipodi:role="line"
           id="tspan1496"
           style="stroke-width:0.264583"
           x="20.036316"
           y="63.04224">Текущая громкость:</tspan></text><text
         xml:space="preserve"
         style="font-size:5.29167px;line-height:1.25;font-family:Ubuntu;-inkscape-font-specification:Ubuntu;stroke-width:0.264583"
         x="72.506935"
         y="63.04224"
         id="text1502"><tspan
           sodipodi:role="line"
           id="tspan1500"
           style="stroke-width:0.264583"
           x="72.506935"
           y="63.04224">50 %</tspan></text></g><g
       id="g1346"><rect
         style="fill:#ffffff;stroke:#ff5555;stroke-width:0.529167;stroke-linecap:round;stroke-linejoin:round;stroke-dasharray:none;paint-order:markers fill stroke;stop-color:#000000"
         id="rect234"
         width="27.470833"
         height="27.470833"
         x="34.404957"
         y="9.9851074" /><path
         d="m 52.001701,20.059073 v 7.313814 c 1.344652,-0.663241 2.271371,-2.044234 2.271371,-3.652364 0,-1.608131 -0.926719,-2.989124 -2.271371,-3.66145 z m -9.99403,0.935805 v 5.451289 h 3.634193 l 4.542741,4.542742 V 16.452137 l -4.542741,4.542741 z"
         id="path1184"
         style="fill:#000000;stroke-width:0.264584" /><path
         d="m 60.179844,13.249808 c 0.0079,-0.05892 0.01178,-0.119801 0.01178,-0.184611 0,-0.06285 -0.0039,-0.125693 -0.01375,-0.184611 l 0.398681,-0.310304 c 0.03535,-0.02749 0.04517,-0.08052 0.02357,-0.119801 l -0.377078,-0.65203 c -0.02357,-0.04321 -0.07267,-0.05696 -0.115873,-0.04321 l -0.469383,0.188539 c -0.0982,-0.07463 -0.202287,-0.137477 -0.31816,-0.184611 l -0.0707,-0.498843 c -0.0079,-0.04713 -0.04713,-0.08052 -0.09427,-0.08052 h -0.754156 c -0.04713,0 -0.08445,0.03339 -0.09231,0.08052 l -0.0707,0.498843 c -0.115873,0.04713 -0.221926,0.111945 -0.318159,0.184611 l -0.469379,-0.188536 c -0.04321,-0.01571 -0.09231,0 -0.115873,0.04321 l -0.375113,0.65203 c -0.02357,0.04124 -0.01571,0.09231 0.02357,0.119801 l 0.398681,0.310304 c -0.0098,0.05892 -0.01767,0.123728 -0.01767,0.184611 0,0.06088 0.0039,0.125692 0.01375,0.184611 l -0.398681,0.310303 c -0.03535,0.0275 -0.04517,0.08052 -0.02357,0.119801 l 0.377078,0.652031 c 0.02357,0.04321 0.07267,0.05695 0.115872,0.04321 l 0.469384,-0.188539 c 0.0982,0.07463 0.202286,0.137477 0.318159,0.184612 l 0.0707,0.498842 c 0.0098,0.04714 0.04714,0.08052 0.09427,0.08052 h 0.754156 c 0.04713,0 0.08641,-0.03339 0.0923,-0.08052 l 0.0707,-0.498842 c 0.115873,-0.04714 0.221926,-0.109982 0.31816,-0.184612 l 0.469383,0.188539 c 0.04321,0.01571 0.0923,0 0.115873,-0.04321 l 0.377078,-0.652031 c 0.02357,-0.04321 0.01375,-0.09231 -0.02357,-0.119801 z m -1.402258,0.52241 c -0.388862,0 -0.707021,-0.31816 -0.707021,-0.707021 0,-0.388862 0.318159,-0.707021 0.707021,-0.707021 0.388861,0 0.707021,0.318159 0.707021,0.707021 0,0.388861 -0.31816,0.707021 -0.707021,0.707021 z"
         id="path1548"
         style="fill:#000000;stroke-width:0.264583" /><g
         aria-label="long ↓"
         id="text766"
         style="font-size:2.32056px;line-height:1.25;font-family:Ubuntu;-inkscape-font-specification:Ubuntu;fill:#000000;stroke-width:0.264583"
         transform="translate(0,-4.590606)"><path
           d="m 50.104682,18.361255 q -0.199568,-0.0046 -0.283108,-0.08586 -0.08354,-0.08122 -0.08354,-0.252941 v -1.44803 l 0.215812,-0.03713 v 1.45035 q 0,0.05337 0.0093,0.08818 0.0093,0.03481 0.03017,0.05569 0.02088,0.02088 0.05569,0.03249 0.03481,0.0093 0.08586,0.01624 z"
           id="path768"
           style="fill:#000000" /><path
           d="m 51.441326,17.734703 q 0,0.143875 -0.04177,0.259903 -0.04177,0.116028 -0.118349,0.199568 -0.07426,0.08354 -0.178683,0.129952 -0.104425,0.04409 -0.227415,0.04409 -0.122989,0 -0.227414,-0.04409 -0.104426,-0.04641 -0.181004,-0.129952 -0.07426,-0.08354 -0.116028,-0.199568 -0.04177,-0.116028 -0.04177,-0.259903 0,-0.141554 0.04177,-0.257582 0.04177,-0.118348 0.116028,-0.201889 0.07658,-0.08354 0.181004,-0.12763 0.104425,-0.04641 0.227414,-0.04641 0.12299,0 0.227415,0.04641 0.104426,0.04409 0.178683,0.12763 0.07658,0.08354 0.118349,0.201889 0.04177,0.116028 0.04177,0.257582 z m -0.225094,0 q 0,-0.204209 -0.09282,-0.322557 -0.0905,-0.12067 -0.2483,-0.12067 -0.157798,0 -0.25062,0.12067 -0.0905,0.118348 -0.0905,0.322557 0,0.20421 0.0905,0.324879 0.09282,0.118348 0.25062,0.118348 0.157799,0 0.2483,-0.118348 0.09282,-0.120669 0.09282,-0.324879 z"
           id="path770"
           style="fill:#000000" /><path
           d="m 51.74532,17.166166 q 0.07426,-0.01856 0.197247,-0.03945 0.12299,-0.02088 0.283109,-0.02088 0.143874,0 0.239017,0.04177 0.09514,0.03945 0.150837,0.113707 0.05801,0.07194 0.08122,0.174042 0.02321,0.102105 0.02321,0.225094 v 0.677604 h -0.215812 v -0.631192 q 0,-0.111387 -0.01624,-0.190286 -0.01392,-0.0789 -0.04873,-0.127631 -0.03481,-0.04873 -0.09282,-0.06962 -0.05801,-0.02321 -0.143875,-0.02321 -0.03481,0 -0.07194,0.0023 -0.03713,0.0023 -0.07194,0.007 -0.03249,0.0023 -0.06033,0.007 -0.02553,0.0046 -0.03713,0.007 V 18.33814 H 51.74532 Z"
           id="path772"
           style="fill:#000000" /><path
           d="m 53.833822,18.21738 q -0.02785,0.01856 -0.109066,0.04873 -0.0789,0.02785 -0.185645,0.02785 -0.109066,0 -0.20653,-0.03481 -0.09514,-0.03481 -0.16708,-0.106746 -0.07194,-0.07426 -0.113707,-0.183324 -0.04177,-0.109066 -0.04177,-0.259903 0,-0.132272 0.03945,-0.241338 0.03945,-0.111387 0.113708,-0.190286 0.07658,-0.08122 0.185644,-0.12531 0.109067,-0.04641 0.24598,-0.04641 0.150836,0 0.262223,0.02321 0.113707,0.02088 0.190286,0.03945 v 1.07674 q 0,0.278467 -0.143875,0.403777 -0.143875,0.12531 -0.436265,0.12531 -0.113708,0 -0.215812,-0.01856 -0.09978,-0.01856 -0.174042,-0.04409 l 0.03945,-0.187965 q 0.06498,0.02553 0.157798,0.04409 0.09514,0.02088 0.197248,0.02088 0.192606,0 0.276147,-0.07658 0.08586,-0.07658 0.08586,-0.243659 z m -0.0023,-0.895736 q -0.03249,-0.0093 -0.08818,-0.01624 -0.05337,-0.0093 -0.146196,-0.0093 -0.174042,0 -0.269185,0.113707 -0.09282,0.113707 -0.09282,0.301673 0,0.104425 0.02553,0.178683 0.02785,0.07426 0.07194,0.12299 0.04641,0.04873 0.104426,0.07194 0.06033,0.0232 0.122989,0.0232 0.08586,0 0.157798,-0.0232 0.07194,-0.02553 0.113708,-0.05801 z"
           id="path774"
           style="fill:#000000" /><path
           d="m 55.792185,18.345981 h -0.101978 l -0.446436,-0.446436 0.13597,-0.135971 0.265143,0.265142 v -1.382364 h 0.192624 v 1.382364 l 0.262876,-0.265142 0.13597,0.135971 z"
           id="path776"
           style="fill:#000000" /></g></g></g></svg>
